<svg id="Layer_3" data-name="Layer 3" xmlns="http://www.w3.org/2000/svg" viewBox="0 0 1080 1080"><defs><style>.cls-1{fill:#ff97c9;}.cls-13,.cls-2{fill:#f774b9;}.cls-15,.cls-2{opacity:0.43;}.cls-3,.cls-9{fill:#c7dcf9;}.cls-4{fill:#99adf9;}.cls-15,.cls-21,.cls-5{fill:#738de0;}.cls-18,.cls-5{opacity:0.56;}.cls-6{fill:#e1ecff;}.cls-7{fill:#1c3177;}.cls-10,.cls-11,.cls-14,.cls-22,.cls-8{fill:none;stroke-linecap:round;stroke-miterlimit:10;stroke-width:5px;}.cls-8{stroke:#1c3177;}.cls-10,.cls-9{stroke:#e1ecff;}.cls-9{stroke-linejoin:round;stroke-width:6px;}.cls-11{stroke:#99adf9;}.cls-12{fill:#ffd3b3;}.cls-14{stroke:#738de0;}.cls-14,.cls-22{opacity:0.69;}.cls-16,.cls-18,.cls-20{fill:#ff8d76;}.cls-17{fill:#fea691;}.cls-19{fill:#fec272;}.cls-19,.cls-20{opacity:0.55;}.cls-22{stroke:#ff8d76;}</style></defs><path class="cls-1" d="M333.63,769.14c5.44,22.66,11.69,34.54,23.27,36.73,19.32,3.66,42.29,1.52,53.12-2.48,8.26-3,18.68-12.66,20.62-48.07C387.18,746,333.63,769.14,333.63,769.14Z"/><path class="cls-2" d="M356.9,805.87a112.8,112.8,0,0,0,17.81,1.82c-9.62-6.61-15.84-34.38-15.84-34.38l-9.39-9.95c-9.75,3.14-15.85,5.78-15.85,5.78C339.07,791.8,345.32,803.68,356.9,805.87Z"/><path class="cls-1" d="M202.46,760.09c2.43,15.81,5.77,36.88,16.69,42.73s56.19,7.25,65.92,0c7.19-5.35,12.88-42.73,12.88-42.73Z"/><path class="cls-1" d="M447.84,582.6s14,57.38,10.44,85.29-23.1,35.72-39.76,34.78c-1.24-15.06-10.41-126.52-10.41-126.52Z"/><path class="cls-2" d="M447.84,582.6s14,57.38,10.44,85.29-23.1,35.72-39.76,34.78c-1.24-15.06-10.41-126.52-10.41-126.52Z"/><path class="cls-3" d="M404.71,514.85s29.58,20.67,43.13,67.75c-21.5,15.88-47.38,21.74-47.38,21.74Z"/><path class="cls-1" d="M188,487.63s-37.54-20.85-51.81-32S119,430.86,109.83,429.24c-11.56-2-27,6.81-28.1,22.39s35.88,66.52,78.59,95.71C191.05,518.37,188,487.63,188,487.63Z"/><path class="cls-4" d="M432.51,660.32s3.84,52.91-2.74,102.67c-43.78,20.6-96.14,6.15-96.14,6.15l-4.33-25L302.22,744l-5.9,27.38c-49.73,10.46-92.1,0-92.1,0s-7.09-37.91-6.15-98.94C272.41,638.07,432.51,660.32,432.51,660.32Z"/><path class="cls-5" d="M433.12,671.89S337.25,715.74,198,689.4c.35-10,.59-27.07.59-27.07l233-4.65Z"/><path class="cls-6" d="M400,507s38.2,52.68,38.2,157.61c-65,25-240.15,7.9-240.15,7.9l5.19-100.53s-28.89-11.86-42.94-24.59c9.22-21.07,27.66-59.71,27.66-59.71s45.65,20.2,90.87,26.78S400,507,400,507Z"/><path class="cls-3" d="M238.5,508.81s36.91,48,80.76,50.82,67.37-44.78,67.37-44.78Z"/><path class="cls-1" d="M281.43,319.15s-2.83-31-10.29-37-21.51,3.51-37.54,28.32-38,54.62-40.61,107.56c-2.63,53.56,11.64,80.34,54.88,99.22s78.59,22.39,88.9,21.51,69.81-15.8,85.83-41.49,22.39-63.22,6.15-116.12S380,281.73,369.7,280.2s-15.81,38.19-15.81,38.19S319.85,306.86,281.43,319.15Z"/><path class="cls-2" d="M336.77,538.78c10.32-.88,69.81-15.8,85.83-41.49,9.43-15.11,15.51-34.34,15.61-58.38-.22.19-70,60.81-240.1,30,7.46,22.07,23.1,36.73,49.76,48.37C291.11,536.15,326.46,539.66,336.77,538.78Z"/><circle class="cls-7" cx="296.32" cy="401.93" r="7.59"/><circle class="cls-7" cx="374.91" cy="401.93" r="7.59"/><path class="cls-8" d="M282.89,376.34s4.4-6.8,16.38-5.71"/><path class="cls-8" d="M384.06,372.37s-4.87-6.47-16.74-4.5"/><path class="cls-9" d="M269.2,425.88s52.68-15.81,132.29,0c7.9,29.27.58,62.27.58,62.27s-65.85,22.9-131.7-2.86C257.78,461,269.2,425.88,269.2,425.88Z"/><path class="cls-10" d="M268.32,425.29a522.73,522.73,0,0,1-73.9-23.14"/><path class="cls-10" d="M401.49,425.88S422,419,435.62,409.53"/><path class="cls-10" d="M270.37,485.29s-33.39,7.42-56.8,9.49"/><path class="cls-10" d="M402.07,488.15s10.62,7.17,20.53,9.14"/><path class="cls-11" d="M283.9,444.61s61-4.17,101.64,0"/><path class="cls-11" d="M283.9,464.59s39.08,11,102.73,1.53"/><path class="cls-12" d="M271.24,322s-3.07-23.6-7.46-26.81-19.91,18.43-25.18,36.29C251.78,325.05,271.24,322,271.24,322Z"/><path class="cls-12" d="M366.43,320.9s-1.5-25.23,2.72-28.68,18.43,17.76,24.62,35.32A94.12,94.12,0,0,0,366.43,320.9Z"/><path class="cls-2" d="M150,510.46C129.54,493.54,98.86,461.81,94.78,432a24.16,24.16,0,0,0-13,19.62c-1.1,15.59,35.88,66.52,78.59,95.71a96.52,96.52,0,0,0,15.76-19A203.83,203.83,0,0,1,150,510.46Z"/><path class="cls-3" d="M207.29,544.49a334.55,334.55,0,0,1-36.83-19.57c-3.71,8-7.35,16-10.14,22.42,14.05,12.73,42.94,24.59,42.94,24.59Z"/><path class="cls-5" d="M329.3,744.11l22.61-2.71,7,31.91c-11.05-1.34-25.24-4.17-25.24-4.17Z"/><ellipse class="cls-13" cx="104.56" cy="453.29" rx="12.73" ry="9.61" transform="translate(-212.64 113.01) rotate(-30)"/><ellipse class="cls-13" cx="107.13" cy="436.16" rx="3.67" ry="2.67" transform="translate(-23.01 6.3) rotate(-3.04)"/><ellipse class="cls-13" cx="95.23" cy="440.13" rx="3.67" ry="2.67" transform="translate(-216.66 115.32) rotate(-31.63)"/><ellipse class="cls-13" cx="88.5" cy="449.87" rx="3.67" ry="2.67" transform="translate(-367.44 401.58) rotate(-72.83)"/><path class="cls-14" d="M236.31,678.18s-2.05,32.48-32.2,45.06"/><path class="cls-4" d="M762.3,769.14c-5.45,22.66-11.7,34.54-23.27,36.73-19.32,3.66-42.3,1.52-53.13-2.48-8.26-3-18.67-12.66-20.61-48.07C708.75,746,762.3,769.14,762.3,769.14Z"/><path class="cls-15" d="M739,805.87a112.8,112.8,0,0,1-17.81,1.82c9.62-6.61,15.84-34.38,15.84-34.38l9.38-9.95c9.75,3.14,15.86,5.78,15.86,5.78C756.85,791.8,750.6,803.68,739,805.87Z"/><path class="cls-4" d="M893.46,760.09C891,775.9,887.7,797,876.78,802.82s-56.19,7.25-65.93,0c-7.18-5.35-12.87-42.73-12.87-42.73Z"/><path class="cls-4" d="M648.09,582.6s-14,57.38-10.44,85.29,23.1,35.72,39.76,34.78c1.24-15.06,10.41-126.52,10.41-126.52Z"/><path class="cls-15" d="M648.09,582.6s-14,57.38-10.44,85.29,23.1,35.72,39.76,34.78c1.24-15.06,10.41-126.52,10.41-126.52Z"/><path class="cls-16" d="M689.49,508.81s-27.85,26.71-41.4,73.79c21.5,15.88,47.38,21.74,47.38,21.74Z"/><path class="cls-4" d="M908,487.63s37.54-20.85,51.81-32S977,430.86,986.1,429.24c11.56-2,27,6.81,28.1,22.39s-35.89,66.52-78.59,95.71C904.88,518.37,908,487.63,908,487.63Z"/><path class="cls-15" d="M945.93,510.46c20.46-16.92,51.13-48.65,55.22-78.45a24.16,24.16,0,0,1,13.05,19.62c1.09,15.59-35.89,66.52-78.59,95.71a96.52,96.52,0,0,1-15.76-19A204.53,204.53,0,0,0,945.93,510.46Z"/><path class="cls-17" d="M663.42,660.32s-3.84,52.91,2.74,102.67c43.78,20.6,96.14,6.15,96.14,6.15l4.33-25,27.08-.09,5.89,27.38c49.74,10.46,92.11,0,92.11,0s7.09-37.91,6.14-98.94C823.51,638.07,663.42,660.32,663.42,660.32Z"/><path class="cls-18" d="M662.81,671.89s95.87,43.85,235.11,17.51c-.35-10-.59-27.07-.59-27.07l-233-4.65Z"/><path class="cls-12" d="M695.9,507s-38.19,52.68-38.19,157.61c65,25,240.14,7.9,240.14,7.9l-5.18-100.53s28.89-11.86,42.94-24.59C926.39,526.27,908,487.63,908,487.63s-45.66,20.2-90.88,26.78S695.9,507,695.9,507Z"/><path class="cls-17" d="M873.83,500.45l-5.13,8.36s18.21,27.7,24,63.12c0,0,28.89-11.86,42.94-24.59C926.39,526.27,908,487.63,908,487.63S894,493.82,873.83,500.45Z"/><path class="cls-19" d="M852,507s-36.91,48-80.76,50.82-67.37-44.78-67.37-44.78Z"/><path class="cls-20" d="M885.92,545.42a338.11,338.11,0,0,0,39.54-20.5c3.72,8,7.36,16,10.15,22.42-14.05,12.73-42.94,24.59-42.94,24.59S889.26,555.58,885.92,545.42Z"/><path class="cls-18" d="M766.63,744.11,744,741.4l-7,31.91c11.05-1.34,25.24-4.17,25.24-4.17Z"/><ellipse class="cls-21" cx="991.37" cy="453.29" rx="9.61" ry="12.73" transform="translate(103.12 1085.19) rotate(-60)"/><ellipse class="cls-21" cx="988.8" cy="436.16" rx="2.67" ry="3.67" transform="translate(500.74 1400.39) rotate(-86.96)"/><ellipse class="cls-21" cx="1000.7" cy="440.13" rx="2.67" ry="3.67" transform="translate(101.16 1061.38) rotate(-58.37)"/><ellipse class="cls-21" cx="1007.43" cy="449.87" rx="2.67" ry="3.67" transform="translate(-87.92 317.54) rotate(-17.17)"/><path class="cls-22" d="M859.62,678.18s2,32.48,32.2,45.06"/><path class="cls-16" d="M760.9,536.37s-15.22,8.19-25.75,21.8c-19.91-11.85-27.81-32.49-27.81-32.49Z"/><path class="cls-16" d="M759.6,537s17.17,9.9,27.94,23.34c19.7-12.19,25.43-34.92,25.43-34.92Z"/><path class="cls-22" d="M760.9,534.28s-7.9,64.3-4.39,143.9"/><path class="cls-4" d="M760.21,340.77s-9.6-19.8-24-33.59-25.49-11.7-30.29-5.1,9.3,32.09,11.7,56.68c-29.7,11.4-31.8,40.35-34.8,54.67s-28.49,22.4-32.09,38.6-4,42.72,9.9,56c22.19,21.18,81.83,33.78,126.27,28.89,59.48-6.55,101.73-41.64,101.73-41.64s1.65-81.45-7.85-116.43c-13.19-48.6-35.39-88.18-52.79-87s-7.19,30.59-9.29,50.39C783.6,336.57,760.21,340.77,760.21,340.77Z"/><path class="cls-15" d="M786.9,536.93c59.48-6.55,101.73-41.64,101.73-41.64s.13-6.07.11-15.61l-.11-.07C743,506.12,659.87,438.13,659.87,438.13h0c-4.37,4.09-8,8.55-9.14,13.9-3.6,16.2-4,42.72,9.9,56C682.82,529.22,742.46,541.82,786.9,536.93Z"/><path class="cls-9" d="M796.25,440.17s-53.68-16.11-134.8,0c-8.05,29.82-.6,63.45-.6,63.45S728,527,795.06,500.71C807.88,476,796.25,440.17,796.25,440.17Z"/><path class="cls-10" d="M797.14,439.57s42.79-6.56,87.35-30"/><path class="cls-10" d="M795.06,500.71s33.74,14.51,67.48,12.47"/><path class="cls-11" d="M781.26,459.25s-62.18-4.24-103.56,0"/><path class="cls-11" d="M781.26,479.61s-39.81,11.18-104.68,1.56"/><circle class="cls-7" cx="788.63" cy="415.31" r="7.59"/><circle class="cls-7" cx="710.05" cy="415.31" r="7.59"/><path class="cls-8" d="M802.06,389.72s-4.39-6.81-16.37-5.71"/><path class="cls-8" d="M700.89,385.74s4.88-6.46,16.75-4.49"/><path class="cls-3" d="M742.61,344.51s-11.41-22.68-18.15-28.68-11.55-6.14-11.12,0c.32,4.5,5.86,16.24,10.54,37C730.17,347,742.61,344.51,742.61,344.51Z"/><path class="cls-3" d="M826.46,341.88s-.58-9.81-1.46-18.73-1.32-17,2.63-17.71,13.32,4.83,23,40.1A116.44,116.44,0,0,0,826.46,341.88Z"/><rect class="cls-16" x="805.1" y="586.56" width="37.17" height="8.2" rx="2.52" transform="translate(-19.6 28.34) rotate(-1.95)"/></svg>