<svg id="Layer_3" data-name="Layer 3" xmlns="http://www.w3.org/2000/svg" viewBox="0 0 1080 1080"><defs><style>.cls-1{fill:#99adf9;}.cls-2,.cls-3{fill:#738de0;}.cls-3{opacity:0.46;}.cls-4{fill:#c7dcf9;}.cls-5{fill:#1c3177;}.cls-6{fill:#ff97c9;}.cls-11,.cls-7,.cls-8,.cls-9{fill:none;stroke-linecap:round;}.cls-7,.cls-8{stroke:#738de0;}.cls-7,.cls-8,.cls-9{stroke-miterlimit:10;}.cls-7{stroke-width:8px;}.cls-8{stroke-width:7px;}.cls-11,.cls-9{stroke:#1c3177;stroke-width:9px;}.cls-10{fill:#fff;}.cls-11{stroke-linejoin:round;}</style></defs><path class="cls-1" d="M254.77,475.86S125,703.82,155.57,973.2H637.13s-72.3-212.3-10.55-351.79C431.68,533.05,254.77,475.86,254.77,475.86Z"/><path class="cls-1" d="M629.24,305.41s37-28.23,79.18-35.75,77.87,28.31,87.86,42.48c-56,23-107.12,110.47-107.12,110.47Z"/><path class="cls-2" d="M659,330.55s52.18-50.12,101-36.18c23.19,22,6,19,6,19s-42.8,11.94-73.76,75.87C659.15,357.06,659,330.55,659,330.55Z"/><path class="cls-1" d="M321.49,336s14.31-50.7,39.34-95.28,71-83.86,99.38-87.06,82.84,6.64,92.7,16.82c-27.25,6.79-55.06,94.81-55.06,94.81Z"/><path class="cls-2" d="M471.8,178.51S398.44,223.12,385.36,307c54.36,5.53,114.22-13.17,114.22-13.17l19.48-105.53Z"/><path class="cls-1" d="M355,287.11c54.6-50.77,151.19-37.36,226.36-14.12S697.9,329.68,709,375.52,723.11,482.76,736.7,498s62.57,39.76,71.93,68.5-15.42,116-62.14,161.29-164.68,35-242.41,19.86S319.69,679.3,274.24,620.36C246.93,585,238.06,522.1,261,454.76,283.64,388,312.89,326.24,355,287.11Z"/><circle class="cls-3" cx="379.78" cy="464.1" r="39.18"/><path class="cls-3" d="M746.49,727.81c46.72-45.34,71.49-132.56,62.14-161.29S750.28,513.27,736.7,498c-.18-.2-.36-.42-.54-.64-28.07-8.39-58.73-13.24-88.16-9.29-29.07,3.9-67.33,35.49-101.46,72.43s-64.4,64.49-115,68.36c-47.79,3.67-129.8-51.63-181.91-125.78-6.13,48.14,4,90.52,24.58,117.26,45.45,58.94,152.12,112.15,229.84,127.31S699.77,773.15,746.49,727.81Z"/><path class="cls-4" d="M444.29,158.28c12.68-.55,26.33,111.38,63,121.37s56.3-22.3,60.11-54.53.64-51.54-17.73-62.19C532.48,153,487.68,141.13,444.29,158.28Z"/><path class="cls-4" d="M729.55,269.3c28.11,2.91,46,15.72,59.63,28.58s25.35,28.84,26,43.3c1.13,26.86-5.92,74.74-40.2,62.37C755.26,396.45,779.15,297.81,729.55,269.3Z"/><path class="cls-2" d="M581,392.48c-1.21-13.14-11.52-14.82-25.85-9.18-9.5,3.74-21,4.38-27.49,3.39-13-2-27,2.06-29.2,15s18.55,27,44.27,21.77S581.79,401.27,581,392.48Z"/><path class="cls-2" d="M649.28,380c4.91-8.2,21,7,30.06,10.78s19.25,4.15,24.74,11.07,3.2,21.51-10,22.85-33.34-8.83-41.6-23.22C647.67,393.11,646.35,384.91,649.28,380Z"/><path class="cls-5" d="M657.57,532.45c1.71-8.26,23.5-13.31,41.36-10.24s26.49,13.78,24.72,22.34-16.38,12.83-32.41,10.17S655.8,541,657.57,532.45Z"/><path class="cls-5" d="M694.47,584c-17.29-.83-39.36,15-58,39.1-15.37,19.9-29.13,38-3.07,53.78,21.07,12.78,58.42,12.11,74.06-1.79S711.76,584.84,694.47,584Z"/><path class="cls-6" d="M631.65,657.54s15.16-12,45-6,46.14,25.59,51,41.48-4.63,33.86-29.94,36-38.2-13.15-42.76-28.57S643.86,666.71,631.65,657.54Z"/><ellipse class="cls-5" cx="687.73" cy="471.09" rx="16.48" ry="14.89" transform="translate(86.88 1048.9) rotate(-78.29)"/><path class="cls-7" d="M679.77,493.55s8.05,5.26,17.45,3.67"/><path class="cls-4" d="M765.56,643.48S801,666.61,833.66,682c6.73-35.93,45.39-32.78,64.65-19.54s17.41,42.21,4.49,59.95c26.06,5.08,51.74,47.4,26,82.57s-71.06,16.53-83.77,4c-39.72,30-82.94,7.69-85.5-20-1.85-19.9,7.85-45.59,34.26-46.81-17.26-29.1-50.34-63.39-50.34-63.39Z"/><path class="cls-8" d="M760.56,642.21s40.35,30,74.74,44.19"/><path class="cls-8" d="M753.19,659.82s34.5,26.93,46.08,35.71"/><path class="cls-8" d="M743.4,678.84a406.8,406.8,0,0,1,50.34,63.39"/><path class="cls-8" d="M819.7,797.05s19.15,21.52,44.25,5"/><path class="cls-8" d="M890.06,703.82s21.44,8.91,13.29,35.93"/><path class="cls-9" d="M653.25,644.42s20.38,7.75,30.9,29.06"/><path class="cls-4" d="M424.38,456.86a42,42,0,1,1-82.33-17.06C346.77,417.07,401.1,362,401.1,362S429.09,434.13,424.38,456.86Z"/><ellipse class="cls-10" cx="399.16" cy="457.97" rx="17.82" ry="11.54" transform="translate(-208.31 451.24) rotate(-48.29)"/><path class="cls-11" d="M544.91,466.76s21.46-6.06,37.43-.68c-26.67-18.48-53-18.17-53-18.17"/><path class="cls-7" d="M555.84,482.5a56.71,56.71,0,0,1,21-2.48"/><path class="cls-8" d="M226.58,856.34S315.18,924,405.44,924,545.7,881.39,544.1,848.5c-1.57-32-30.79-65.51-63.22-69.07s-86.36,89.72-212-.18"/><path class="cls-1" d="M601.63,760s100.08,67.89,93.15,135.28c-5,48.16-68.48,45.17-100.76,33.37-47.9-17.51-49.37-48.7-46.5-92.68,1.48-22.54,22.79-38.94,34.82-35.83,10.63,2.75,22.54,11.59,22.54,11.59S600.63,798.77,601.63,760Z"/><path class="cls-3" d="M601.63,760c-1,38.82,3.54,56.41,3.54,56.41s34.63,19.41,48.08,37.91a128.31,128.31,0,0,0,3.84-45.11C631.21,780,601.63,760,601.63,760Z"/><path class="cls-8" d="M655.8,854.27s-38-45.71-70.7-51.6-37.29,16.25-38.46,47-9.11,66.55,77.77,86.29"/><path class="cls-3" d="M231.16,859.67s23.33,82.57,78.64,113.53H637.13L626.3,935.94s-32.49-4-50.69-16.05-30.26-26.16-31.47-62.16c-8.55,16.75-39.63,62.73-116.9,65.39S260.73,892.77,231.16,859.67Z"/></svg>