<svg xmlns="http://www.w3.org/2000/svg" viewBox="0 0 1080 1080"><defs><style>.cls-1{fill:#c7dcf9;}.cls-2,.cls-7{fill:#99adf9;}.cls-2,.cls-6{opacity:0.25;}.cls-3{fill:#fff;}.cls-4,.cls-5{fill:#e1ecff;}.cls-5{opacity:0.55;}.cls-8{opacity:0.51;}.cls-17,.cls-18,.cls-9{fill:none;stroke-linecap:round;stroke-miterlimit:10;stroke-width:7px;}.cls-9{stroke:#99adf9;}.cls-10{fill:#1c3177;}.cls-11{fill:#fec272;}.cls-12,.cls-14{fill:#ff8d76;}.cls-13{fill:#fea691;}.cls-14{opacity:0.4;}.cls-15{fill:#738de0;}.cls-16{fill:#ffd3b3;}.cls-17{stroke:#ff8d76;}.cls-18{stroke:#1c3177;}.cls-19{fill:#ff97c9;}.cls-20{fill:#f774b9;}</style></defs><g id="Layer_3" data-name="Layer 3"><rect class="cls-1" x="216.13" y="687.14" width="655.81" height="68.33"/><rect class="cls-2" x="216.13" y="645.89" width="655.81" height="68.33"/><rect class="cls-3" x="207.11" y="540" width="655.81" height="91.82"/><rect class="cls-4" x="216.13" y="628.31" width="655.81" height="68.33"/><path class="cls-1" d="M880.17,547s31.61-125.26,13.61-199.95-87.37-91.64-214.68-54.87c-49.17-37.45-104.05-41.63-139.1-41.63s-89.93,4.18-139.1,41.63c-127.31-36.77-196.68-19.82-214.68,54.87s13.61,200,13.61,200Z"/><path class="cls-2" d="M394.49,397.87c2.23,36.34,10.11,92.51,35.39,149.15H262.1s45-22,83.89-79.94c16.76-25,28.4-50.78,36-71.07C384.47,389.49,394.07,390.92,394.49,397.87Z"/><path class="cls-2" d="M685.51,397.87c-2.23,36.34-10.11,92.51-35.39,149.15H817.9s-45-22-83.89-79.94c-16.76-25-28.4-50.78-36-71.07C695.53,389.49,685.93,390.92,685.51,397.87Z"/><path class="cls-5" d="M255.32,277.17c.25,0,58-4.58,120.66,33.63a13.53,13.53,0,0,0,19.42-6.19c3.42-7.84,5.5-12.42,5.5-12.42C338.87,274.27,290.6,269.12,255.32,277.17Z"/><path class="cls-5" d="M500,252.94c28.13,2.76,85.24,1.42,147.59,51.73a13.13,13.13,0,0,0,17.39-.82c8.42-8.22,14.08-11.66,14.08-11.66-36.05-27.46-74.53-37.16-108.51-41-30-3.37-70.53,1.72-70.53,1.72Z"/><path class="cls-5" d="M897.4,367.61a181,181,0,0,0-3.62-20.55c-13.73-57-57.33-80.34-133.73-71.92l-13.72,1.8s119.51,9.53,152.39,105.2C898.72,382.14,898.15,374.57,897.4,367.61Z"/><path class="cls-1" d="M227.86,498.25c-7-27.38-37.64-38.83-76.73-38.83s-71.9,32.2-76.72,74.75,24.61,115,31.36,156.4,8.21,64.1,22.68,72.95,77.82,7.51,90.31-7.1C234.21,738.37,241.37,551.3,227.86,498.25Z"/><path class="cls-5" d="M110.29,472.32c.5.14,108.57,30.29,123.67,173.57,2.34-57.14.88-120.25-6.1-147.64s-37.64-38.83-76.73-38.83A71.78,71.78,0,0,0,110.29,472.32Z"/><g class="cls-6"><path class="cls-7" d="M95.49,647.94c4.41,15.83,8.31,30.55,10.28,42.63,6.76,41.45,8.21,64.1,22.68,72.95s77.82,7.51,90.31-7.1C130.08,765.61,97.49,655,95.49,647.94Z"/><path class="cls-7" d="M95.39,647.58h0l0,.15Z"/></g><path class="cls-1" d="M852.14,498.25c7-27.38,37.64-38.83,76.73-38.83s71.9,32.2,76.72,74.75-24.61,115-31.36,156.4-8.21,64.1-22.68,72.95-77.82,7.51-90.31-7.1C845.79,738.37,838.63,551.3,852.14,498.25Z"/><path class="cls-5" d="M969.71,472.32c-.5.14-108.57,30.29-123.67,173.57-2.34-57.14-.88-120.25,6.1-147.64s37.64-38.83,76.73-38.83A71.78,71.78,0,0,1,969.71,472.32Z"/><g class="cls-6"><path class="cls-7" d="M984.51,647.94c-4.41,15.83-8.31,30.55-10.28,42.63-6.76,41.45-8.21,64.1-22.68,72.95s-77.82,7.51-90.31-7.1C949.92,765.61,982.51,655,984.51,647.94Z"/><path class="cls-7" d="M984.61,647.58h0l0,.15Z"/></g><g class="cls-8"><path class="cls-9" d="M393.88,301.93s-10.54,67.17,0,135.66"/><path class="cls-9" d="M679.1,312.77s14.34,64-1.54,146.65"/><path class="cls-9" d="M875.05,528.9s-5.35,81.88-3.11,133.57,2.23,66.17,16.28,74.08,55.32,5.35,55.32,5.35"/><path class="cls-9" d="M106.76,510.5s33.8-30.91,76.39-15.91,23.34,88.69,24,137.23"/></g></g><g id="Layer_4" data-name="Layer 4"><path class="cls-10" d="M555.11,817.25s22.14,23.19,71.45,37.41,91,4.86,91,4.86-21.93-30.94-68.38-41.83S555.11,817.25,555.11,817.25Z"/><path class="cls-11" d="M608.9,821.61s1,8.24,11.51,11.76,21.74,0,21.74,0,6.58,17.4,23.48,18,23.93-8.6,23.93-8.6S646.78,820,608.9,821.61Z"/><path class="cls-12" d="M682.24,475.9s51.48,4.42,68.13-6.48c9-5.9,20.81-9.72,27.51-1.48,15.8,19.44,1.75,58,1.75,58l-79.9-7.32Z"/><path class="cls-13" d="M311.36,527.41s-16.48-34.51-14.51-65.9,18.22-54,45-59.05,27.22,29.64,23.71,43.91-5.71,45.22,5.05,66.29C366,544.27,316.42,532.72,311.36,527.41Z"/><path class="cls-12" d="M370.61,512.66c-2.44-4.79-5.12,6.37-6.37.88-37.24-1.35-57.51-17.13-66.35-31.06,3.5,24,13.47,44.93,13.47,44.93C316.42,532.72,366,544.27,370.61,512.66Z"/><path class="cls-12" d="M329.12,456.9s10.1,14.27,24.15,16c11.19-16.47,9.44-24.8,9.44-24.8Z"/><path class="cls-13" d="M346.46,521.47s61.62-99,177.66-114.62c113.56-15.24,151.32,18.15,203.12,91,28.69,5.56,53.27-12.88,71.13-6.73s24,39.22,18.73,64.09-12,26.93-46.83,35.13S563.05,605,556.32,605.59c-24.59,30.14-54.15,82.53-63.52,108.87s-28.39,50.93-44.48,57.08-17-7.61-22.54-54.74c-29.56,10-67.9-2.63-67.9-2.63s-13.17,31.61-29.56,38.93-24,7.61-30.15,3.22-.29-45.66,1.46-63.52c-21.95-15.21-20.19-53.85-17.56-74.92s-3-38.93-2.92-49.17C279.3,551.46,291.59,522.54,346.46,521.47Z"/><path class="cls-14" d="M540,405c-10.09.53-21.16,2.26-32.41,4.28C400,428.55,346.46,521.47,346.46,521.47s28.39-4,79.32,10.65C439,475.35,481.74,416.61,540,405Z"/><path class="cls-15" d="M342.13,468.5l55.09-87.13a5.94,5.94,0,0,1,5.52-2.76L463,383.52a6,6,0,0,1,4.84,8.64l-45,88.77a11.78,11.78,0,0,1-12.25,6.32l-64.22-9.67A6,6,0,0,1,342.13,468.5Z"/><ellipse class="cls-10" cx="409.35" cy="466.67" rx="6.26" ry="5.16"/><ellipse class="cls-10" cx="327.29" cy="619.8" rx="9.37" ry="7.88"/><ellipse class="cls-10" cx="415.61" cy="629.02" rx="9.37" ry="7.88"/><path class="cls-10" d="M385.93,597.38c-.44,5.39-10.32,9-22.06,8s-20.9-6.1-20.46-11.5S353.6,578,365.34,579,386.37,592,385.93,597.38Z"/><path class="cls-13" d="M318.72,410.89c10-8,26.7-12.89,46.85-9.51s18.6,27.08,11.3,35.5S346.52,456.81,327,456.81C316.85,434.66,302,424.32,318.72,410.89Z"/><path class="cls-13" d="M496.9,534.5s-21.7-49.12-37.43-69.27-35-26.36-27-42.08,37.43-24.67,59.14-22.86,50.27,37.25,71.53,109.89C550.06,526.13,496.9,534.5,496.9,534.5Z"/><path class="cls-16" d="M295.55,746.87c17.57,4.59,29.62-23.48,31.38-44.33a98,98,0,0,1-27.3-9.74C298.32,706.14,294.73,732.53,295.55,746.87Z"/><path class="cls-16" d="M456.44,705c-9,4.17-30.66,11.85-30.66,11.85,1.8,15.24,3.11,27,4.6,35.67,3,2.41,6.08,4,8.72,3.41C446.82,754,458.41,728.66,456.44,705Z"/><path class="cls-17" d="M441.29,450s29,19.25,55.61,84.48"/><path class="cls-17" d="M514.32,411s38.63,32.49,48.8,99.23"/><path class="cls-17" d="M488.71,518.37s-7.91,14-7.61,25.75"/><path class="cls-17" d="M343.24,518.37s48.59-2.86,94.83,16.13"/><path class="cls-18" d="M364.67,582.9s-1.23-13.46,1.11-22.24"/><path class="cls-18" d="M343.39,567.39s5.71-8.78,22.39-8.19,24.88,10.24,24.88,10.24"/><path class="cls-19" d="M555.11,817.25s63.67-66.84,115-75.26c23.62-1.06,82.65,7.17,126.07,35.85-27.88,52.75-78.65,81.68-78.65,81.68S659.46,818.48,555.11,817.25Z"/><path class="cls-20" d="M777.47,806.35a188.22,188.22,0,0,0,18.7-28.51,197.92,197.92,0,0,0-40.48-20.06c-61.11-1.56-118.08,7.14-145.07,12.1-30.93,21.56-55.51,47.37-55.51,47.37,10.83.12,21.15.69,31,1.58,28.54-6,62.59-12.34,88-14.2C705.77,802.3,748.4,804.34,777.47,806.35Z"/><path class="cls-11" d="M528.7,843.6c-5.21-.36-18.29-5.23-20.45-.06s3.9,14.8,20.25,15.26,26.27-8,25-12.22C551.28,839.43,539.09,844.33,528.7,843.6Z"/><path class="cls-11" d="M639.39,872.53c-4.45-1.95-14.38-10.84-17.92-6.3s-1.29,16.06,12.91,21.52,25.59,0,25.8-4.66C660.53,875.23,648.27,876.44,639.39,872.53Z"/><path class="cls-11" d="M564.59,872.57c-4.73,1.12-18,0-18.1,5.75s8.63,13.61,23.26,9.42,20.43-15.42,17.8-19.25C583.1,862,574,870.34,564.59,872.57Z"/><path class="cls-11" d="M486.22,867.54s5.85-5.56,8.63-4.1,5.71,4.54,5,6.15S486.66,870.46,486.22,867.54Z"/><path class="cls-11" d="M682.42,872s-3.77,7.14-6.88,6.64-6.85-2.47-6.68-4.23S681.06,869.35,682.42,872Z"/></g></svg>