<svg id="Layer_3" data-name="Layer 3" xmlns="http://www.w3.org/2000/svg" viewBox="0 0 1080 1080"><defs><style>.cls-1{fill:#fec272;}.cls-2,.cls-6{fill:#ff8d76;}.cls-3,.cls-7{fill:none;stroke-linecap:round;}.cls-3{stroke:#1c3177;stroke-linejoin:round;stroke-width:16px;}.cls-4{fill:#1c3177;}.cls-5{fill:#e1ecff;}.cls-6{opacity:0.28;}.cls-7{stroke:#ff8d76;stroke-miterlimit:10;stroke-width:12px;}.cls-8{fill:#f774b9;}</style></defs><path class="cls-1" d="M607.84,303.64s-2.94-63.68-.46-104.12,15.07-87.38,41.8-88.14,29.37,31.87,75.85,98.08c28.94,41.23,69.58,115.63,78.51,177.93C700.47,385.22,607.84,303.64,607.84,303.64Z"/><path class="cls-2" d="M734.55,331.61S710,256.79,700.71,231.9C686.19,193,670.17,157,653.05,161s-9.24,73.14-9.24,73.14-25.66-.58-27,10.45,24.35,27.05,24.35,27.05-16.12,4.43-18.3,17.87S734.55,331.61,734.55,331.61Z"/><path class="cls-1" d="M362.85,351.4S324.29,304.17,292,281.19s-75.39-43.26-90.61-29,24.9,213.8,38.87,249.25C334.46,416.35,362.85,351.4,362.85,351.4Z"/><path class="cls-2" d="M319.75,378.36s-19.76-35.84-42.14-59.5-38.88-18.93-45.56-9.95,12.14,59.36,12.14,59.36-30.63,3.57-33.76,16.76,41.44,27.37,41.44,27.37S212.59,428.5,218,448.46s52.79,4,52.79,4Z"/><path class="cls-1" d="M272.22,417.66c-39.78,59.2-89.61,221-67.25,308.83C232.3,833.82,332.72,910.75,562.38,857.07S898.86,688.11,879,541.42c-23.11-170.19-177.4-266-282.63-257.93S338.18,319.47,272.22,417.66Z"/><path class="cls-2" d="M356.3,343.63s-9.11,29.79-8.64,48.52,17.74,11.15,29.27-11.37,41.52-63.62,41.52-63.62S379.68,328.89,356.3,343.63Z"/><path class="cls-2" d="M440.7,310.11C427.51,331.23,424.62,412.59,451.81,415c21.45,1.88,22.36-61.8,67.74-122.46C478.51,298,440.7,310.11,440.7,310.11Z"/><path class="cls-2" d="M537.11,289.87s2.36,27.87,7.35,45.68,19.09,34.18,31.29,28.1,15.82-52,29.46-80.59C566.7,282.15,537.11,289.87,537.11,289.87Z"/><path class="cls-3" d="M348,555.86s36.93,7.49,61.56,23.84c-32.19-.72-71.7,20.81-71.7,20.81"/><path class="cls-3" d="M605.21,491.61S564,518,548.78,551.22c29.26-10.59,76.44-12.17,76.44-12.17"/><path class="cls-2" d="M319.82,475.17c1.82-12.1,46.15-22,63.73-17.07s18.54,27.13,6.77,33.12S317,494.12,319.82,475.17Z"/><path class="cls-2" d="M588.65,421.26c-6.8-10.17-51.11-.22-64.92,11.73s-5.21,32.44,8,32.84S599.3,437.19,588.65,421.26Z"/><ellipse class="cls-4" cx="469.92" cy="579.16" rx="19.54" ry="11.57" transform="translate(-106.51 105.89) rotate(-11.56)"/><path class="cls-2" d="M839.52,427.65s-28.43,26.84-77.89,64.91C716,527.7,726.19,549.32,741.79,573s85.73,64.37,129.85,67.5C904.19,556.39,858.52,455.92,839.52,427.65Z"/><path class="cls-2" d="M210.92,580.12s41.67,37.37,42.51,74.39-44.49,85.75-44.49,85.75S180.74,691,210.92,580.12Z"/><path class="cls-3" d="M331.45,771.73s-67.69,27.29-132.26,27"/><line class="cls-3" x1="333.8" y1="818.44" x2="258.16" y2="878.27"/><path class="cls-3" d="M402.39,804.42s-19.3,47-25.12,90.83"/><path class="cls-5" d="M330.83,719a4.28,4.28,0,0,0-1.34-7.26c-7.49-2.73-19.87-6.8-28.66-7.35-13-.82-27,14.71-14.55,28.52C297.49,745.37,320.53,728,330.83,719Z"/><path class="cls-5" d="M329.62,897.68a4.27,4.27,0,0,0-6.15-4.06c-7.16,3.51-18.68,9.62-25.16,15.57-9.61,8.81-8.11,29.67,10.47,30.26C325.52,940,328.94,911.32,329.62,897.68Z"/><path class="cls-1" d="M826.77,799.6s-48.19-63.33-88.67-88.4-73.32-31.26-96.51-20.2S584.54,746.67,585,772.87s28.65,50.36,79.83,68.31c25.35,8.89,50.87,46.71,74.12,58.25S838.28,862.28,826.77,799.6Z"/><path class="cls-6" d="M657.07,783.44c-51.64-27.58-30.78-81.19-30.43-82.09-20.49,17.94-42,50.6-41.66,71.52.44,26.19,28.65,50.36,79.83,68.31,15.16,5.32,30.38,21,45.14,35.18C698.78,844.78,696.41,804.46,657.07,783.44Z"/><path class="cls-7" d="M582,765.38s22.89-69.1,69.69-82.32,104,33,149.2,85.38"/><path class="cls-7" d="M632.44,694.2s34.32,6.11,45.85,17"/><path class="cls-7" d="M596.16,734.47s21.83,5.77,38.27,21.86"/><path class="cls-4" d="M482.8,622.79c-26.79,10.81-39.07,46.84-25,80.05s44.35,34.54,73.32,20,30.11-57.18,22.27-77.27C542.94,619,510,611.82,482.8,622.79Z"/><path class="cls-8" d="M540.36,691.72s-15.2-11-35.65-1.32c-18.47,8.72-17.08,27.66-17.08,27.66S531.89,723.33,540.36,691.72Z"/></svg>