<svg id="Layer_4" data-name="Layer 4" xmlns="http://www.w3.org/2000/svg" xmlns:xlink="http://www.w3.org/1999/xlink" viewBox="0 0 1080 1080"><defs><style>.cls-1{fill:#ff97c9;}.cls-2{clip-path:url(#clip-path);}.cls-3,.cls-4,.cls-8{fill:#f774b9;}.cls-3{opacity:0.33;}.cls-4{opacity:0.3;}.cls-5{fill:#1c3177;}.cls-6{fill:#fff;opacity:0.28;}.cls-7,.cls-9{fill:none;stroke-linecap:round;}.cls-7{stroke:#f774b9;stroke-miterlimit:10;stroke-width:12px;}.cls-9{stroke:#1c3177;stroke-linejoin:round;stroke-width:11px;}.cls-10{fill:#fec272;}</style><clipPath id="clip-path"><path class="cls-1" d="M827.73,430.47c21.86,132-68.58,256-195.9,297.7C489,774.94,341.61,725.74,310,578.45,273.77,409.62,343.41,288,487.81,246.17,654.66,197.88,801.3,270.88,827.73,430.47Z"/></clipPath></defs><path class="cls-1" d="M827.73,430.47c21.86,132-68.58,256-195.9,297.7C489,774.94,341.61,725.74,310,578.45,273.77,409.62,343.41,288,487.81,246.17,654.66,197.88,801.3,270.88,827.73,430.47Z"/><g class="cls-2"><path class="cls-3" d="M296,428.09s30.92,219.13,224.75,221c193.61,1.9,252.84-160.78,316-189.88,57-26.27,25.7,113.26,25.7,113.26L700.43,909.71,194.61,651.09S219,500,296,428.09Z"/><path class="cls-4" d="M486.75,584c23.93.09,60.86-16,51.73-41.31S507.15,529.07,488,528.09s-37.06-9.57-48.39,4.44C428.56,546.21,443,583.83,486.75,584Z"/></g><ellipse class="cls-5" cx="484" cy="651.03" rx="12.59" ry="21.8" transform="translate(-186.41 1107.83) rotate(-87.64)"/><path class="cls-1" d="M308.25,448.23s-55.18-118-36.08-151S412.44,347.37,446.68,398.7C375.56,400,308.25,448.23,308.25,448.23Z"/><path class="cls-6" d="M272.17,297.25c-3.4,5.87-4.44,14.44-3.86,24.56C285,318.73,326.1,314.35,377,332.12,332.62,299.86,283.72,277.34,272.17,297.25Z"/><path class="cls-6" d="M600.55,294.32s55.72,6.49,104.26,60.14c-34.24-53.88-54.2-87.28-77.69-83.55S600.55,294.32,600.55,294.32Z"/><path class="cls-7" d="M562.59,406.57s27-133,64.53-135.66S727.88,376.94,743,464.52"/><path class="cls-8" d="M371.08,405.51a7.35,7.35,0,0,0,3.6-11.31c-11.79-16.11-39.73-49.51-70.86-53-12.61-1.41,4.06,56.31,16.67,85.13a7.36,7.36,0,0,0,12.12,2.07C344.43,415.93,360.84,408.93,371.08,405.51Z"/><path class="cls-8" d="M602.48,411.31a9.15,9.15,0,0,1-8-11.43c5.95-22.6,21.22-72.65,39.91-73,19.09-.35,41.48,58.67,52,91.38a9.14,9.14,0,0,1-12.09,11.28C641.61,416.63,616,412.57,602.48,411.31Z"/><path class="cls-9" d="M358.39,541s38.7,15.51,62.95,45.7c-33.95-2.81-53.53-3.87-53.53-3.87"/><path class="cls-9" d="M611.39,544.14s-39.07,14.56-64.06,44.14c34-2,53.61-2.55,53.61-2.55"/><path class="cls-1" d="M306,558.55S359.26,641,472.57,660.69c113.69,19.78,173.56-24.18,209.17-12.51s65.54,68.3,34,117.66-201.59,95-319.82,47.74C274.53,765,198.67,616.69,301.1,482.21,301,513.85,302.93,537.51,306,558.55Z"/><path class="cls-7" d="M306.88,562.48s32.86,66.17,134.68,92.18,180.15-3.9,222-8.67,56.61,25.51,56.61,25.51"/><path class="cls-7" d="M669.59,687.43s30.67-6.18,48.71,13.3"/><path class="cls-7" d="M671.25,729.1s30.67-6.17,48.71,13.3"/><path class="cls-7" d="M461,536.74s7.24,14.82,8.12,25.74"/><line class="cls-7" x1="487.81" y1="541.03" x2="487.81" y2="559.57"/><path class="cls-7" d="M516.56,539.37s-9.65,17.34-11,29.86"/><path class="cls-7" d="M373.59,323.6s45.44,32.8,73.09,67.1"/><path class="cls-3" d="M256.65,651c14,72.91,69,134.44,139.25,162.54,95.06,38,223.59,15.94,286.73-19.83C361.37,846.47,256.8,651.32,256.65,651Z"/><line class="cls-9" x1="180.95" y1="435.99" x2="231" y2="481.4"/><line class="cls-9" x1="153.73" y1="520.29" x2="205.98" y2="520.29"/><path class="cls-10" d="M772.1,702s64.33-39.25,89.46-111.71c34.34.63,50.81,0,50.81,0s-17.13,18.65-13.17,41.25,40.17,40.38,40.17,40.38-43.47,7.83-55.32,28-2.64,57.26-2.64,57.26-27.65-21-52.68-15.59-45.44,29.16-45.44,29.16Z"/></svg>