<svg xmlns="http://www.w3.org/2000/svg" viewBox="0 0 1080 1080"><defs><style>.cls-1{isolation:isolate;}.cls-2{fill:#fea691;}.cls-3{fill:#c7dcf9;}.cls-15,.cls-4{fill:#99adf9;}.cls-13,.cls-4{opacity:0.45;}.cls-5{fill:#ff8d76;}.cls-6{fill:#e1ecff;}.cls-7,.cls-9{fill:#fec272;}.cls-8{fill:#fff;}.cls-9{opacity:0.51;mix-blend-mode:multiply;}.cls-10,.cls-14,.cls-21{fill:none;stroke-linecap:round;}.cls-10{stroke:#fff;}.cls-10,.cls-14{stroke-linejoin:round;stroke-width:9px;}.cls-11{fill:#ffd3b3;}.cls-12{fill:#1c3177;}.cls-14{stroke:#99adf9;}.cls-16,.cls-17{fill:#738de0;}.cls-17{opacity:0.35;}.cls-18,.cls-20{fill:#f774b9;}.cls-19{fill:#ff97c9;}.cls-20{opacity:0.58;}.cls-21{stroke:#1c3177;stroke-miterlimit:10;stroke-width:8px;}</style></defs><g class="cls-1"><g id="body"><path class="cls-2" d="M555.88,802.41s25.84,3.08,49.8-1.75c3.76,35.12,4.2,112,15.17,123.36s71.13,7.91,87.37-9.65S705,687.67,705,687.67l20.74-223.3-38.59-18-156.28,72Z"/><path class="cls-2" d="M547.24,800.22s-3.13,112.47-8.17,122.47-41,15.16-74.06,10-19.82-50.63-16.85-89.13S547.24,800.22,547.24,800.22Z"/><path class="cls-3" d="M581.27,522.72s72,8.68,122.06-68.3c31.67,40.24-7.4,240.1-7.4,240.1L563.49,690.2Z"/><path class="cls-3" d="M441.86,888.32s56.95,7.4,101.66-3.18c3.72-32.24,7.82-80.53,7.82-80.53h54.73s3.55,65.3,6,83.08c47,1.8,102.33-9.35,102.33-9.35l1.16-240.43s-129.95,31.42-253.47,17.4C456.8,699,441.86,888.32,441.86,888.32Z"/><rect class="cls-4" x="575.2" y="675.81" width="108.73" height="30.67"/></g><g id="injection"><path class="cls-3" d="M847.35,172.81l-.51.83a8.07,8.07,0,0,0-1,6.12l20.51,86.89,5.86-1.38-21.7-91.94A1.74,1.74,0,0,0,847.35,172.81Z"/><path class="cls-5" d="M858.24,227.22h6.83a4.29,4.29,0,0,1,4.29,4.29v10a0,0,0,0,1,0,0H854a0,0,0,0,1,0,0v-10A4.29,4.29,0,0,1,858.24,227.22Z" transform="translate(-30.79 204.25) rotate(-13.28)"/><path class="cls-6" d="M952.39,445.29,912.84,277.76a33.77,33.77,0,0,0-19.55-23.27L880.56,249a24.73,24.73,0,0,0-28.62,6.76L843,266.36a33.77,33.77,0,0,0-7.07,29.56l39.55,167.52a5.5,5.5,0,0,1-4.08,6.61h0a7.67,7.67,0,0,0-5.71,9.24l3.06,13A7.67,7.67,0,0,0,878,498l87.59-20.68a7.67,7.67,0,0,0,5.71-9.24l-3.06-13a7.67,7.67,0,0,0-9.24-5.71h0A5.49,5.49,0,0,1,952.39,445.29Z"/><path class="cls-7" d="M936,437.34l-35.84-151.8a21.69,21.69,0,0,0-12.55-14.94l-8.18-3.52a15.85,15.85,0,0,0-18.36,4.34l-5.75,6.8a21.68,21.68,0,0,0-4.53,19L886.6,449Z"/><rect class="cls-8" x="877.65" y="471.64" width="52.75" height="9.62" rx="4.81" transform="translate(-85.29 220.47) rotate(-13.28)"/><path class="cls-9" d="M878.37,407.08h17a5.71,5.71,0,0,1,5.71,5.71v0a5.71,5.71,0,0,1-5.71,5.71h-17a0,0,0,0,1,0,0V407.08A0,0,0,0,1,878.37,407.08Z" transform="translate(-71.04 215.48) rotate(-13.28)"/><path class="cls-9" d="M870.81,375h17a5.71,5.71,0,0,1,5.71,5.71v0a5.71,5.71,0,0,1-5.71,5.71h-17a0,0,0,0,1,0,0V375A0,0,0,0,1,870.81,375Z" transform="translate(-63.88 212.88) rotate(-13.28)"/><path class="cls-9" d="M863.24,343h17a5.71,5.71,0,0,1,5.71,5.71v0a5.71,5.71,0,0,1-5.71,5.71h-17a0,0,0,0,1,0,0V343a0,0,0,0,1,0,0Z" transform="translate(-56.72 210.29) rotate(-13.28)"/><path class="cls-9" d="M855.68,311h17a5.71,5.71,0,0,1,5.71,5.71v0a5.71,5.71,0,0,1-5.71,5.71h-17a0,0,0,0,1,0,0V311a0,0,0,0,1,0,0Z" transform="translate(-49.56 207.69) rotate(-13.28)"/><rect class="cls-2" x="849.94" y="238.55" width="28.75" height="14.11" rx="4.72" transform="translate(-33.31 205.16) rotate(-13.28)"/></g><g id="arm"><line class="cls-10" x1="687.15" y1="436.12" x2="714.69" y2="438.12"/><path class="cls-2" d="M805.24,403.78S826.1,376.12,834,365.37s25.46-14.05,43.68-9.88,28.1,16.68,25,28.75-27.88,13.25-31,14.42c1.09,21.8-.88,40.46-26.13,47.71C823.24,430.34,805.24,403.78,805.24,403.78Z"/><path class="cls-6" d="M703.33,454.42s-4.48,67.46-19.4,113.12-22.54,47.7-26.34,89,0,169.47,0,169.47,95.7,10.24,178.82-50.05c-25.17-73.17-71.12-222.44-71.12-222.44s60.88-42.44,87.81-102.44c-11.42-10.54-51.81-52.39-51.81-52.39S765.17,436.43,703.33,454.42Z"/><path class="cls-8" d="M703.33,454.42s19.23,23.85,22.16,55.46-20.9,43.32-22.16,57.66,9.45,29.56,0,46.24-44.4,30.8-44.4,30.8,4.8-29.92,8.61-50.7S703.33,454.42,703.33,454.42Z"/><path class="cls-3" d="M801.51,393.9c.66,0,55.54,54.66,55.54,54.66s-7.9,23.27-20.85,38.64c-22.83-21.74-56.42-74.86-56.42-74.86Z"/><path class="cls-8" d="M727.24,685.28s38.19-8.47,59.71-18.13c3.51,10.54,6.14,22.16,6.14,22.16s-25.32,23.5-63.36,23.94A140.16,140.16,0,0,1,727.24,685.28Z"/></g><g id="head"><path class="cls-2" d="M648.29,265.82C633,254.4,614.06,227,633.08,194.08s60.34-40.71,86.29-28.26c41.83,20.06,65.53,95,.26,119.86C668.75,305.08,648.29,265.82,648.29,265.82Z"/><path class="cls-2" d="M487,230.37c2.34-17.57-3.51-48-37.75-56.78s-68.79,12.87-74.93,38.92,5.27,68.2,54.73,79S487,230.37,487,230.37Z"/><path class="cls-11" d="M465.87,232.05c1.4-10.51-2.1-28.73-22.6-34s-41.16,7.71-44.84,23.3,3.16,40.81,32.76,47.29S465.87,232.05,465.87,232.05Z"/><path class="cls-11" d="M664.58,241.37c-6.53-8.35-12.74-25.83,2.27-40.74s39.39-14.21,50.46-2.63,18,36.78-4.28,57.37S664.58,241.37,664.58,241.37Z"/><path class="cls-2" d="M447.88,241.78c26.56-30.73,67.41-54.22,123.61-50.27s90,11.2,126.19,56,43.91,86.71,38.42,129.29-23.05,66.73-45.44,93.29-101.86,61-158,52.25S410.12,461.07,406,393.46,417.13,277.36,447.88,241.78Z"/><path class="cls-3" d="M683.93,436.41c-26-41-7-90-7-90s-76.68-12.71-156.88-8.9c-79.58,3.77-113.74,17.59-114.26,17.81a323,323,0,0,0,.19,38.16c1.72,27.81,13.94,53.05,31.65,73.74C519.94,480.69,612.67,484.29,683.93,436.41Z"/><path class="cls-10" d="M403.24,353.59s34.25-17.27,115.91-19.32,158.63,9.66,158.63,9.66-7.32,20.78-4.68,43.9,14,48.29,14,48.29S629.78,476.22,549,478.27s-115.61-10.54-115.61-10.54"/><line class="cls-10" x1="677.78" y1="343.93" x2="732.22" y2="306.17"/><circle class="cls-12" cx="477" cy="310.41" r="12.15"/><circle class="cls-12" cx="581.27" cy="308.22" r="12.15"/><path class="cls-5" d="M464.85,264.83c7-.78,34.39,10.1,31.32,17.12S466.32,285,458,280.2,457,265.71,464.85,264.83Z"/><path class="cls-5" d="M595.25,265c-7-.87-34.52,9.65-31.54,16.72s29.82,3.45,38.22-1.27S603.07,265.94,595.25,265Z"/><g class="cls-13"><path class="cls-14" d="M410.05,388.07s56.7-24.32,238-10.27"/><path class="cls-14" d="M415,424.14s54.77,13.08,234.36-15.55"/></g></g><g id="shield"><path class="cls-15" d="M287.83,478.42c23.88-.6,120.18-6.15,170.87-56.21a7,7,0,0,1,10.82,1.1C511.58,487.18,610.37,512.19,637,517.9a7.08,7.08,0,0,1,5.48,8.18c-13.07,72.55-43.58,224.3-61.19,254.38-35.39,60.43-188,103.2-212.57,109.76a7,7,0,0,1-6.13-1.22C345.22,875.66,252,801.14,242.41,733.49c-6.21-44,10.9-129.58,38.7-249.59A7.09,7.09,0,0,1,287.83,478.42Z"/><polygon class="cls-16" points="530.87 633.65 460.95 624.63 472.79 558.53 396.28 550.1 384.79 614.81 320.28 606.49 307.61 678.36 371.79 688.01 360.36 752.36 435.77 765.13 447.55 699.4 517.1 709.86 530.87 633.65"/><path class="cls-17" d="M261.74,570.77C246,645.78,237.83,701,242.41,733.49c3.62,25.63,19.26,52.24,38.22,76.14,42.38-23.15,70.84-66,70.84-115.11C351.47,638.46,314.34,590.49,261.74,570.77Z"/><path class="cls-17" d="M581.27,780.46c17.61-30.08,48.12-181.83,61.19-254.38A7.08,7.08,0,0,0,637,517.9c-6.26-1.34-16.52-3.75-29.09-7.49-7.59,47.27-32.66,188.34-70,248.54C492.66,831.83,368.7,890.22,368.7,890.22,393.3,883.66,545.88,840.89,581.27,780.46Z"/></g><g id="virus"><rect class="cls-18" x="317.96" y="571.38" width="11.55" height="40.56" transform="matrix(0.74, 0.68, -0.68, 0.74, 485.98, -62.97)"/><circle class="cls-19" cx="346.78" cy="566.6" r="22.04"/><rect class="cls-18" x="132.61" y="653.81" width="11.55" height="40.56" transform="translate(-541.5 780.43) rotate(-87.29)"/><circle class="cls-19" cx="104.37" cy="672.48" r="22.04"/><rect class="cls-18" x="188.34" y="554.22" width="11.55" height="40.56" transform="translate(-255.43 167.51) rotate(-29.17)"/><circle class="cls-19" cx="251.54" cy="666.66" r="99.76"/><circle class="cls-19" cx="177.51" cy="544.77" r="22.04"/><path class="cls-20" d="M307.73,584.25a99.74,99.74,0,0,1-136.22,142,99.75,99.75,0,1,0,136.22-142Z"/><circle class="cls-12" cx="219.25" cy="664.91" r="10.9"/><circle class="cls-12" cx="303.58" cy="664.91" r="10.9"/><path class="cls-21" d="M253.75,687.67s2.72-8,13.16-8,12.83,8,12.83,8"/><path class="cls-21" d="M214.11,635.28s4.6,4.47,16.69,5.26"/><path class="cls-21" d="M309.05,635.28s-4.61,4.47-16.69,5.26"/></g></g></svg>