<svg xmlns="http://www.w3.org/2000/svg" viewBox="0 0 1080 1080"><defs><style>.cls-1{isolation:isolate;}.cls-2{fill:#c7dcf9;}.cls-3{fill:#e1ecff;}.cls-11,.cls-4{fill:#ff8d76;}.cls-5{fill:#ffd3b3;opacity:0.71;}.cls-6{fill:#1c3177;}.cls-7{fill:#fff;}.cls-14,.cls-8{opacity:0.27;}.cls-10,.cls-12,.cls-13,.cls-14,.cls-9{fill:none;stroke-miterlimit:10;}.cls-10,.cls-14,.cls-9{stroke:#99adf9;stroke-width:4px;}.cls-10,.cls-12,.cls-14,.cls-9{stroke-linecap:round;}.cls-10{stroke-dasharray:13.07 13.07;}.cls-11{opacity:0.52;mix-blend-mode:multiply;}.cls-12{stroke:#e1ecff;stroke-width:5px;}.cls-13{stroke:#c7dcf9;stroke-width:6px;}.cls-14{stroke-dasharray:12;}</style></defs><g class="cls-1"><g id="Layer_3" data-name="Layer 3"><ellipse class="cls-2" cx="718.54" cy="761.27" rx="87.9" ry="51.04"/><path class="cls-3" d="M316.36,751.18S245,782.11,246.89,832s123.76,73.64,113.84,125.94c29.11-8,87.23-36.42,87.23-36.42s-10.29-37.09-45-57.34-104-27-63-86.47C359.74,753.44,316.36,751.18,316.36,751.18Z"/><path class="cls-2" d="M532.06,775.85s99.44,47.94,153.5,36.38c10.6-46.15,7-72.47,7-72.47l-90.8-9.4Z"/><path class="cls-2" d="M379.52,717.61s56.34,84.27,111.58,66.3S621.39,713,621.39,713l-54-42.18Z"/><path class="cls-2" d="M295.2,744.67s.31-34.07,60.62-35.94,91.74,70.38,138.56,74.86C406.81,792.43,306.25,787.73,295.2,744.67Z"/><path class="cls-3" d="M333.51,668.87s-3.57,25.38,5.38,44c61.06,35.06,126.61-6.27,153.54-37.13C391.57,659.51,333.51,668.87,333.51,668.87Z"/><path class="cls-2" d="M331.34,622.37s-11.48,29.07-11.72,44.3c39.91,19.54,100.33,53.74,200.28,3C508.75,612.66,331.34,622.37,331.34,622.37Z"/><path class="cls-3" d="M423.62,811.14s33.2,23.66,71.35,15.7,77.66-83.41,137.45-91.55c-42-23.24-66.14-21.17-91-12.87s-41.45,49.43-66,52.51-95.62-20.9-94.18-20.64S423.62,811.14,423.62,811.14Z"/><rect class="cls-2" x="602.42" y="611.16" width="143.94" height="100.53" transform="translate(-30.11 32.17) rotate(-2.67)"/><path class="cls-3" d="M555.86,700.34s78.55,53.38,148.87,64.14S810.07,730.8,810.07,730.8L792.91,679s-45.35,20-107,16.71-83.1-31.07-120.69-28.13C554,695.2,555.86,700.34,555.86,700.34Z"/><path class="cls-3" d="M351.38,572.9l-20,49.47s64.72,41.68,119.38,41c1.94-40,15-95.84,15-95.84Z"/><path class="cls-2" d="M384.47,507.53s-34.74,19.82-41.72,63.87c57,28.75,128.23,16.66,128.23,16.66l.26-65.91Z"/><path class="cls-2" d="M767.89,584.39,789,642.69s-85-7.76-107.14-33.36C718.22,580.05,767.89,584.39,767.89,584.39Z"/><path class="cls-3" d="M744.79,524.28s25.06,27.36,28.2,60.82c-45.94,27.83-108.19,32.32-108.19,32.32L631,578.64Z"/><path class="cls-4" d="M440.67,253.86c10.26-9.09,4.39-79.15-50.46-92.76s-76.29,56.82-65.58,82.48S389.07,299.54,440.67,253.86Z"/><path class="cls-5" d="M421.2,246.34c6.05-5.36,2.59-46.71-29.79-54.74s-45,33.54-38.7,48.68S390.74,273.31,421.2,246.34Z"/><path class="cls-2" d="M721.73,471.89l31.33,46.27s-51.86,70.77-166,81.33-169.71-80.06-169.71-80.06Z"/><path class="cls-3" d="M413.34,463.74l-28.87,43.79s56,58.38,154.26,44.28S704,474.67,704,474.67L686.55,451Z"/><path class="cls-4" d="M732.71,336.17c4.43,94.87-76.8,147.21-179.8,152S366.82,464.73,359.73,353.58C353.68,258.8,435.2,177.9,538.2,173.09S728.28,241.3,732.71,336.17Z"/><path class="cls-2" d="M381.8,449.57S413.8,503.24,518,515s175.76-45.1,175.76-45.1l20.43-41.1Z"/><path class="cls-3" d="M463.06,183.26C502.34,169.06,618.35,148,700.36,234c-58.94,31.29-219.71,10.26-219.71,10.26Z"/><path class="cls-2" d="M389.75,242.8c9.23-16.13,33-47.2,73.31-59.54,108.64,4.44,183.26,64.68,183.26,64.68Z"/><path class="cls-3" d="M584.13,453.91s64.82,3.16,130.08-25.09c30.73-44.62,20.21-107,20.21-107Z"/><path class="cls-2" d="M358.62,380.74s43.13,27.47,123.3,23.26S644.19,355.05,678,295c23,4.63,56.42,26.85,56.42,26.85s-69.29,105-165.08,141.35-192.21-12-192.21-12S360.37,418.23,358.62,380.74Z"/><path class="cls-3" d="M356,323.8s168.13-65.87,378.46-2c4.57-24.46-9.7-65.17-34.06-87.82-85.08-19.33-205.7-23.2-310.61,8.8C357.46,271.89,356,323.8,356,323.8Z"/><path class="cls-4" d="M612,144.09c-30,10.51-43,37.39-46.52,60.32,0,0,40.84,17.91,77.09,52.32C664.72,250.21,680.64,234,685,220.1,693.24,193.56,665.33,125.43,612,144.09Z"/><path class="cls-5" d="M613.63,174.56c-19.84,6.95-27,26-28,40.33A313.63,313.63,0,0,1,626,242.31c16-2.41,27.78-13.55,30.69-22.88C661.59,203.76,645.12,163.55,613.63,174.56Z"/><circle class="cls-6" cx="416" cy="372.12" r="14.01"/><circle class="cls-6" cx="540.01" cy="366.33" r="14.01"/><path class="cls-3" d="M411.85,559l6.4,137.14c.71,15.33,34.86,26.19,76.27,24.26s74.4-15.93,73.68-31.26L561.8,552Z"/><path class="cls-7" d="M418.25,696.16c.65,14,29.27,24.29,65.82,24.47L476.38,556l-64.53,3Z"/><ellipse class="cls-7" cx="486.82" cy="555.52" rx="75.06" ry="27.79" transform="translate(-25.38 23.31) rotate(-2.67)"/><ellipse class="cls-2" cx="486.82" cy="555.52" rx="24.7" ry="9.15" transform="translate(-25.38 23.31) rotate(-2.67)"/><g class="cls-8"><line class="cls-9" x1="496.13" y1="586.89" x2="496.41" y2="592.88"/><line class="cls-10" x1="497.02" y1="605.94" x2="501.6" y2="703.88"/><line class="cls-9" x1="501.9" y1="710.41" x2="502.18" y2="716.4"/></g><path class="cls-4" d="M605,590.05c-11.59,6.25-35.62,11.18-48,10.33s-15.68-4.85-25.14,1.48S514.66,621.62,519.94,648s18.41,42.9,38.6,42.43S634.17,681.67,673,638C676.15,592.68,605,590.05,605,590.05Z"/><path class="cls-3" d="M588.82,596.05s36.2,11.28,61.57,35.3,68.65,74.79,148.4,61.56a627.64,627.64,0,0,0-3-65.18s-20.37,7.67-48.51,0c-28.46-7.71-42.79-50.73-102.82-53.16C619,581.15,588.82,596.05,588.82,596.05Z"/><ellipse class="cls-11" cx="415.28" cy="336.48" rx="16.39" ry="8.79" transform="translate(-15.24 19.73) rotate(-2.67)"/><ellipse class="cls-11" cx="540.72" cy="330.63" rx="16.39" ry="8.79" transform="translate(-14.83 25.58) rotate(-2.67)"/><path class="cls-4" d="M405.34,608.19c9.48-1.89,27.35-5,34.62,8.14s9.1,59-3.13,65.32-33.27,3.77-44.82-12.81S391.2,611,405.34,608.19Z"/><path class="cls-4" d="M689.89,708.1c-14.89,4-24.12,23.64-21.41,68.21s13.16,64.38,45,67.65,47.46-8.87,59.29-40.81,12-69.4-6.28-80.24c-23.32-13.81-40.78-4.12-51.48-9.32S697,706.19,689.89,708.1Z"/><path class="cls-5" d="M755.06,788c-1.08,17.34-11.44,38.67-33.85,37.28s-30.05-23.84-29-41.19S708,758.51,725.3,759.59,756.14,770.63,755.06,788Z"/><path class="cls-5" d="M710.22,735.07c.55,6.66-2.22,15.35-10.82,16.07s-12.77-7.41-13.32-14.08,4.56-10.6,11.23-11.15S709.66,728.4,710.22,735.07Z"/><path class="cls-5" d="M737.41,737.75c-.82,5.15-4.53,11.23-11.19,10.17s-8.3-8-7.48-13.15,5.43-7.19,10.59-6.37S738.24,732.59,737.41,737.75Z"/><path class="cls-5" d="M764.85,748.11c-2.11,4.78-7.26,9.71-13.43,7s-6-9.85-3.87-14.62,7.09-5.57,11.86-3.46S767,743.34,764.85,748.11Z"/><path class="cls-4" d="M423.62,811.14s-22.93-70.84-36.36-81c-18-13.69-28.64-13.42-41.8-5.88-15,8.59-28.86,10.63-25.84,34.6s24.77,75.91,52.65,78C407,839.49,423.62,811.14,423.62,811.14Z"/><path class="cls-5" d="M341.75,802.42c7.27,15.24,21.35,31.48,33.55,24.06s7.92-29.62.64-44.86-18.74-18.56-28.18-12.82S334.47,787.18,341.75,802.42Z"/><path class="cls-5" d="M351.44,741.26c1.56,6.33,5.67,13.85,11,12.69s5.48-9.61,3.92-15.94-5.72-8.91-9.85-8S349.87,734.93,351.44,741.26Z"/><path class="cls-5" d="M336,749.52c2,4.63,5.89,9.51,9.55,7.11s2.67-9.21.71-13.84-5.27-5.55-8.1-3.69S334.07,744.89,336,749.52Z"/><path class="cls-5" d="M322.65,765c2.61,4,7.07,7.51,10,3.66s.77-10.44-1.84-14.45-5.8-3.68-8-.71A10,10,0,0,0,322.65,765Z"/><path class="cls-12" d="M384.65,456.76s102.3,49.17,215.57-4.58"/><path class="cls-13" d="M669.29,574.27c15.58,3.75,43.88,23.19,54.34,34.54"/><path class="cls-14" d="M280.61,871.34s43-12.75,72-26.86"/></g></g></svg>