<svg xmlns="http://www.w3.org/2000/svg" viewBox="0 0 1080 1080"><defs><style>.cls-1{isolation:isolate;}.cls-2,.cls-3,.cls-5{fill:#ff8d76;}.cls-12,.cls-3{opacity:0.25;}.cls-3{mix-blend-mode:multiply;}.cls-4{fill:#fea691;}.cls-5{opacity:0.54;}.cls-11,.cls-6{fill:#e1ecff;}.cls-7{fill:#ff97c9;}.cls-8{fill:#1c3177;}.cls-9{fill:#c7dcf9;}.cls-10,.cls-12{fill:#99adf9;}.cls-10,.cls-11{opacity:0.44;}.cls-13{fill:none;stroke:#c7dcf9;stroke-linecap:round;stroke-miterlimit:10;stroke-width:12px;}</style></defs><g class="cls-1"><g id="virus_2" data-name="virus 2"><path class="cls-2" d="M378,326.92c-39.23-5.42-64.95,18.84-92.57,71.63C226.17,511.82,141.88,534.24,149.12,601.06s73.1,93.17,142.25,68.81S378,326.92,378,326.92Z"/><path class="cls-3" d="M206,602.26c-23.71-42.15,6.45-105.49,6.45-105.49h0C174.8,535.69,144.67,560,149.12,601.06c7.25,66.83,73.1,93.17,142.25,68.81,15.82-5.58,28.94-26.57,39.76-55.62C277.09,632,224.65,635.45,206,602.26Z"/><path class="cls-2" d="M702,326.92c39.23-5.42,65,18.84,92.57,71.63,59.27,113.27,143.56,135.69,136.32,202.51s-73.1,93.17-142.25,68.81S702,326.92,702,326.92Z"/><path class="cls-3" d="M911.05,587.78c-14.49-52.23-93.95-112-118.1-136.11s-22.83-72.87-3.42-62.44c-25.77-46.31-50.7-67.4-87.54-62.31,0,0,17.5,318.58,86.64,343,42.77,15.07,84.27,10.73,111.43-10.57C911.72,638.45,918.11,613.24,911.05,587.78Z"/><path class="cls-4" d="M540,261.57c50,0,123.51,4,174.22,82.32,43.68,67.5,23,127.31,67.17,167.93C855.15,579.65,847,657.06,825.51,699.5c-24.36,48.23-68.49,62.56-123.14,62.56H377.63c-54.65,0-98.78-14.33-123.14-62.56-21.44-42.44-29.64-119.85,44.12-187.68,44.17-40.62,23.49-100.43,67.17-167.93C416.49,265.53,490,261.57,540,261.57Z"/><path class="cls-5" d="M723.15,403.82c8.71,5.95,16.07,14,22,22.15-5.26-25.32-12.13-53-31-82.08C663.51,265.53,590.05,261.57,540,261.57c-7.43,0-15.38.09-23.7.5L437.34,366S544,379.23,595.39,382.31,696.8,385.82,723.15,403.82Z"/><path class="cls-5" d="M707.16,715.38c-84.53-7.32-114.95-35.55-127.63-45.36s-19.11-20.49-39.24-20.49S513.72,660.21,501,670s-43.09,38-127.62,45.36-124.19-39.8-130.14-47.22a140,140,0,0,0,11.09,31.34c24.09,48.23,67.73,62.56,121.8,62.56H704.41c54.06,0,97.7-14.33,121.8-62.56a140,140,0,0,0,11.08-31.34C831.34,675.58,791.68,722.7,707.16,715.38Z"/><circle class="cls-6" cx="543.57" cy="708.44" r="21.51"/><rect class="cls-6" x="532.45" y="649.53" width="22.24" height="58.9"/><rect class="cls-7" x="538.3" y="649.53" width="10.54" height="58.9"/><circle class="cls-7" cx="543.57" cy="708.44" r="11.12"/><path class="cls-2" d="M613.1,577.62c0,25.34-32.73,7.25-73.1,7.25s-73.1,18.09-73.1-7.25,32.73-45.88,73.1-45.88S613.1,552.28,613.1,577.62Z"/><ellipse class="cls-8" cx="421.43" cy="540.59" rx="21.4" ry="16.13"/><path class="cls-2" d="M408.36,583.48a61.35,61.35,0,0,0,30.44-7.21c7.41-3.9.85-15.12-6.56-11.23a47.63,47.63,0,0,1-23.88,5.44c-8.37-.23-8.36,12.77,0,13Z"/><path class="cls-8" d="M384.67,507.6a61.84,61.84,0,0,0,49.27-22.29c4.86-5.92-3.58-14.46-8.49-8.49a50.43,50.43,0,0,1-40.78,18.78c-7.73-.21-7.72,11.79,0,12Z"/><ellipse class="cls-8" cx="658.57" cy="540.59" rx="21.4" ry="16.13"/><path class="cls-2" d="M671.64,570.48A47.63,47.63,0,0,1,647.76,565c-7.4-3.89-14,7.33-6.56,11.23a61.35,61.35,0,0,0,30.44,7.21c8.35-.23,8.38-13.23,0-13Z"/><path class="cls-8" d="M695.33,495.6a50.43,50.43,0,0,1-40.78-18.78c-4.91-6-13.35,2.56-8.49,8.49a61.87,61.87,0,0,0,49.27,22.29c7.71-.21,7.74-12.21,0-12Z"/><path class="cls-8" d="M584.84,590c0,12.08-17.93,33.87-44.84,33.87S495.16,602.1,495.16,590s20.07-19.36,44.84-19.36S584.84,578,584.84,590Z"/><path class="cls-8" d="M596.4,673.92a151.65,151.65,0,0,0-18.25-15.6c-9.82-7.28-21.93-14.79-34.58-14.79S518.8,651.06,509,658.35A153.77,153.77,0,0,0,490.73,674c-5.4,5.53,3.08,14,8.49,8.49a135.69,135.69,0,0,1,14.88-13.06c8.14-6.21,18.76-13.89,29.47-13.89s21.32,7.67,29.47,13.85a135.42,135.42,0,0,1,14.88,13c5.42,5.52,13.9-3,8.48-8.49Z"/><path class="cls-9" d="M662.05,299.81c-14.93-16.69-27.22-57.08-32.93-73.76s-18-31.61-31.61-31.61h-9.74a13.84,13.84,0,0,1-13.72-12.09l-2.54-20a5.91,5.91,0,0,0-5.86-5.16h-51.3a5.91,5.91,0,0,0-5.86,5.16l-2.54,20a13.84,13.84,0,0,1-13.72,12.09h-9.74c-13.61,0-25.9,14.93-31.61,31.61s-18,57.07-32.93,73.76-19.32,25.46-18.88,37.31,6.15,25,18,27.66,91.32,0,122.93,0,111.07,2.64,122.93,0,17.56-15.8,18-27.66S677,316.49,662.05,299.81Z"/><path class="cls-10" d="M662.05,299.81c-14.93-16.69-27.22-57.08-32.93-73.76a66,66,0,0,0-8.26-16.41c3.07,13.74,1.6,47.69-6.59,57.35S596.12,286.6,580.9,286.6H504.8c-17.56,0-33.95,11.12-30.73,20.49s11.13,16.09,23.42,16.09H635.63c21.37,0,28.25,13.19,27.52,20.78-1.25,12.88-17.37,19.86-58.78,21.75,27,.39,52.28.47,58.56-.93,11.85-2.63,17.56-15.8,18-27.66S677,316.49,662.05,299.81Z"/><ellipse class="cls-6" cx="500.28" cy="221.78" rx="26.62" ry="12.14"/><path class="cls-9" d="M925.9,872.25c0,69.91-172.77,23.85-385.9,23.85s-385.9,46.06-385.9-23.85S326.87,745.67,540,745.67,925.9,802.34,925.9,872.25Z"/><path class="cls-11" d="M745.18,800.78c0,29.37-91.86,10.72-205.18,10.72s-205.18,18.65-205.18-10.72S426.68,747.6,540,747.6,745.18,771.41,745.18,800.78Z"/><path class="cls-12" d="M154.1,872.25c0,56,111,37.57,264.8,28h0c-87.35,3.81-144.44-12.69-146.63-33.77s60.58-41.27,80.13-66.57L248,789.5C189.49,811.69,154.1,840.61,154.1,872.25Z"/><path class="cls-2" d="M259.56,728.18c35.31-9.86,87.66,11,100.17,32.46s-2.57,49.78-60.2,68.15S208.2,840.22,200.77,817,207.23,742.79,259.56,728.18Z"/><path class="cls-3" d="M224.19,747.66c-23.07,21.54-28.76,52.57-23.42,69.3,7.43,23.26,41.12,30.21,98.76,11.83,5.79-1.84,11.14-3.79,16.09-5.82C217.21,833,224.18,747.73,224.19,747.66Z"/><path class="cls-12" d="M925.9,872.25c0,56-111,37.57-264.8,28h0c87.35,3.81,144.44-12.69,146.63-33.77s-60.58-41.27-80.13-66.57L832,789.5C890.51,811.69,925.9,840.61,925.9,872.25Z"/><path class="cls-2" d="M820.44,728.18c-35.31-9.86-87.66,11-100.17,32.46s2.57,49.78,60.2,68.15S871.8,840.22,879.23,817,872.77,742.79,820.44,728.18Z"/><path class="cls-3" d="M855.81,747.66c23.07,21.54,28.76,52.57,23.42,69.3-7.43,23.26-41.12,30.21-98.76,11.83C774.68,827,769.33,825,764.38,823,862.79,833,855.82,747.73,855.81,747.66Z"/><path class="cls-13" d="M213.16,182.25c0,14.4-16,14.4-16,28.81s16,14.4,16,28.8-16,14.41-16,28.82,16,14.4,16,28.81"/><path class="cls-13" d="M286.8,182.25c0,14.4-16,14.4-16,28.81s16,14.4,16,28.8-16,14.41-16,28.82,16,14.4,16,28.81"/><path class="cls-13" d="M360.44,182.25c0,14.4-16,14.4-16,28.81s16,14.4,16,28.8-16,14.41-16,28.82,16,14.4,16,28.81"/><path class="cls-13" d="M719.56,182.25c0,14.4-16,14.4-16,28.81s16,14.4,16,28.8-16,14.41-16,28.82,16,14.4,16,28.81"/><path class="cls-13" d="M793.2,182.25c0,14.4-16,14.4-16,28.81s16,14.4,16,28.8-16,14.41-16,28.82,16,14.4,16,28.81"/><path class="cls-13" d="M866.84,182.25c0,14.4-16,14.4-16,28.81s16,14.4,16,28.8-16,14.41-16,28.82,16,14.4,16,28.81"/></g></g></svg>