<svg id="Layer_3" data-name="Layer 3" xmlns="http://www.w3.org/2000/svg" viewBox="0 0 1080 1080"><defs><style>.cls-1{fill:#fea691;}.cls-2{fill:#ff8d76;}.cls-3{fill:#fec272;}.cls-4,.cls-5{fill:none;stroke-linecap:round;stroke-miterlimit:10;}.cls-4{stroke:#1c3177;stroke-width:16px;}.cls-5{stroke:#ff8d76;stroke-width:9px;}.cls-6{fill:#1c3177;}</style></defs><path class="cls-1" d="M357,762.06s-81.4-7.94-115.64-97.5c-29.26-76.52,17.32-136.1,20.83-165.07s-66.33-77.59-112.35-59.7S88.09,626.59,127,715.49c41.27,94.39,161.42,136.1,161.42,136.1A596,596,0,0,0,268.9,927.1H827.63s-8.78-103.61-131-159.81C616,730.23,357,762.06,357,762.06Z"/><path class="cls-2" d="M401.29,783.62s60,68.84,138.71,68.84,126.8-63,126.8-63Z"/><circle class="cls-1" cx="295.32" cy="303.46" r="117.88"/><circle class="cls-2" cx="304.47" cy="312.61" r="67.76"/><circle class="cls-1" cx="784.68" cy="303.46" r="117.88"/><circle class="cls-2" cx="775.53" cy="312.61" r="67.76"/><path class="cls-1" d="M838.66,553.78c0,149.87-100.67,253-298.66,253S241.34,693.29,241.34,543.43,370.47,272.07,540,272.07,838.66,403.92,838.66,553.78Z"/><ellipse class="cls-2" cx="540" cy="663.04" rx="106.69" ry="81.86"/><path class="cls-3" d="M131.75,357.71l-14.54,23a7,7,0,0,1-9.7,2.18L48.84,345.74A7,7,0,0,0,39,355.22l58,99a7,7,0,0,0,12,.21l14.55-23a7,7,0,0,1,9.69-2.18l58.67,37.14a7,7,0,0,0,9.82-9.48l-58-99A7,7,0,0,0,131.75,357.71Z"/><path class="cls-3" d="M948.25,357.71l14.54,23a7,7,0,0,0,9.7,2.18l58.67-37.14a7,7,0,0,1,9.82,9.48l-58,99a7,7,0,0,1-12,.21l-14.55-23a7,7,0,0,0-9.69-2.18l-58.67,37.14a7,7,0,0,1-9.82-9.48l58-99A7,7,0,0,1,948.25,357.71Z"/><path class="cls-4" d="M393.56,558.25A54.89,54.89,0,0,0,406.85,566c19.23,7.85,35.29,1.23,45-5.26"/><path class="cls-2" d="M449.42,413.44c-14.77-4.26-93.8,18.7-89.85,41.63s78.81,7,93.51-6.7C466.69,435.68,464.64,417.83,449.42,413.44Z"/><path class="cls-5" d="M442.68,591.21s-17.49,7.58-36.37-1.31"/><path class="cls-4" d="M686.44,558.25A54.89,54.89,0,0,1,673.15,566c-19.23,7.85-35.29,1.23-45-5.26"/><path class="cls-5" d="M637.32,591.21s17.49,7.58,36.37-1.31"/><path class="cls-2" d="M630.58,413.44c14.77-4.26,93.8,18.7,89.85,41.63s-78.81,7-93.51-6.7C613.31,435.68,615.36,417.83,630.58,413.44Z"/><path class="cls-6" d="M564.1,593.62c0,6.87-10.79,20-24.1,20s-24.1-13.17-24.1-20,10.79-12.45,24.1-12.45S564.1,586.74,564.1,593.62Z"/><path class="cls-4" d="M504,687.22s23.12-37.31,36.37-37.31S576,687.22,576,687.22"/><path class="cls-2" d="M241.34,558.25c8.29-25.27,19.2-45.31,20.83-58.76,3.51-29-66.33-77.59-112.35-59.7-14.44,5.61-26.13,26.19-34.1,54.5,7.61-21.92,47.9-30.8,74.89-17.63S246.63,508.8,241.34,558.25Z"/><path class="cls-2" d="M288.37,851.59s16.75,59,51.66,75.51H268.9S279.53,876.83,288.37,851.59Z"/><path class="cls-2" d="M726.66,927.1s2-36.44-8.56-75.51C757.61,888.24,780,927.1,780,927.1Z"/></svg>