<svg xmlns="http://www.w3.org/2000/svg" viewBox="0 0 1080 1080"><defs><style>.cls-1{isolation:isolate;}.cls-2{fill:#e1ecff;}.cls-3,.cls-6{fill:#ff8d76;}.cls-4{fill:#fea691;}.cls-5{fill:#fec272;}.cls-6{opacity:0.49;}.cls-14,.cls-16,.cls-6,.cls-8{mix-blend-mode:multiply;}.cls-7,.cls-8{fill:#738de0;}.cls-14,.cls-8{opacity:0.5;}.cls-15,.cls-9{fill:#c7dcf9;}.cls-10,.cls-16{fill:#99adf9;}.cls-10{stroke:#738de0;}.cls-10,.cls-13{stroke-miterlimit:10;}.cls-11{fill:#1c3177;}.cls-12{opacity:0.45;}.cls-13{fill:none;stroke:#1c3177;stroke-linecap:round;stroke-width:6px;}.cls-15,.cls-16{opacity:0.19;}.cls-17{fill:#fff;}</style></defs><g class="cls-1"><g id="Layer_3" data-name="Layer 3"><rect class="cls-2" x="146.28" y="835.23" width="787.44" height="24.59" rx="12.29"/><rect class="cls-3" x="215.05" y="659.89" width="649.9" height="29.87" rx="14.93"/><rect class="cls-3" x="215.05" y="613.72" width="649.9" height="29.87" rx="14.93"/><rect class="cls-4" x="200.71" y="593.09" width="43.02" height="249.91" rx="14"/><rect class="cls-4" x="836.27" y="593.09" width="43.02" height="249.91" rx="14" transform="translate(1715.56 1436.1) rotate(-180)"/><rect class="cls-3" x="200.71" y="704.51" width="43.02" height="102.29"/><rect class="cls-3" x="836.27" y="704.51" width="43.02" height="102.29" transform="translate(1715.56 1511.32) rotate(-180)"/><rect class="cls-5" x="180.77" y="721.66" width="718.46" height="46.07" rx="14.93"/><path class="cls-6" d="M408.33,721.66A141.34,141.34,0,0,0,451,767.73H629a141.34,141.34,0,0,0,42.69-46.07Z"/><path class="cls-7" d="M624.45,710s20.37,14.05,26.81,26.64,11.71,38,10.83,64.39-5.27,39.8-26.34,41.56-36-1.17-40.12-32.49-7.19-45.07-40.46-65.86C568.43,712.66,624.45,710,624.45,710Z"/><path class="cls-7" d="M592,572.46l-52,8.78-52-8.78s-47.27,13.17-57.52,63.22C432.54,681.34,445.42,739,445.42,739L540,733.14,634.58,739s12.88-57.66,14.93-103.32C639.26,585.63,592,572.46,592,572.46Z"/><path class="cls-8" d="M628.9,526c0,41.83-53.56,90.07-88.9,90.07S451.1,567.81,451.1,526s39.8-75.76,88.9-75.76S628.9,484.14,628.9,526Z"/><path class="cls-7" d="M455.55,710s-20.37,14.05-26.81,26.64-11.71,38-10.83,64.39,5.27,39.8,26.34,41.56,36-1.17,40.12-32.49,7.19-45.07,40.46-65.86C511.57,712.66,455.55,710,455.55,710Z"/><path class="cls-8" d="M499.39,764.87c5.61-6.71,13.61-13.22,25.44-20.61-7.34-17.49-27.78-26.11-44.57-30.32l-30.45,15.11S478.22,733,499.39,764.87Z"/><path class="cls-8" d="M580.61,764.87c-5.61-6.71-13.61-13.22-25.44-20.61,7.34-17.49,27.78-26.11,44.57-30.32l30.45,15.11S601.78,733,580.61,764.87Z"/><path class="cls-9" d="M444.1,593.09S510.4,599,540,640.66v115.9S504.07,734,459.51,729.05L428.74,602Z"/><path class="cls-7" d="M500.05,382.93s-28.9-39.11-82.23-55.62a9.66,9.66,0,0,0-12.53,9.2c.16,51.5,13.64,93.73,27.73,108.1C470.78,416.51,500.05,382.93,500.05,382.93Z"/><path class="cls-10" d="M485.12,388.51s-18.95-25.64-53.9-36.46a6.33,6.33,0,0,0-8.22,6c.11,33.76,8.94,61.45,18.18,70.87A317.12,317.12,0,0,0,485.12,388.51Z"/><path class="cls-7" d="M580,382.93s28.9-39.11,82.23-55.62a9.66,9.66,0,0,1,12.53,9.2c-.16,51.5-13.64,93.73-27.73,108.1C609.22,416.51,580,382.93,580,382.93Z"/><path class="cls-10" d="M594.88,388.51s19-25.64,53.9-36.46a6.33,6.33,0,0,1,8.22,6c-.11,33.76-8.94,61.45-18.18,70.87A317.12,317.12,0,0,1,594.88,388.51Z"/><path class="cls-7" d="M540,598.85c82.83,0,144.59-44.78,146.34-62.63s-18.14-89.85-38.05-121.46S596.78,368.22,540,368.22s-88.39,14.93-108.29,46.54-39.81,103.61-38,121.46S457.17,598.85,540,598.85Z"/><path class="cls-9" d="M662.93,531.1c-2.86-20.2-38.64-99.22-63.66-102.08S548.78,501.1,540,553.78C531.22,501.1,505.76,426.17,480.73,429s-60.8,81.88-63.66,102.08,11.41,37.09,24,45.45a230.55,230.55,0,0,0,197.84,0C651.52,568.19,665.78,551.29,662.93,531.1Z"/><path class="cls-7" d="M593.45,567.84c-2.72-28.87-34-61.06-53.45-61.06S489.27,539,486.55,567.84,506.6,602.22,540,602.22,596.16,596.71,593.45,567.84Z"/><circle class="cls-11" cx="490.5" cy="503.41" r="10.32"/><path class="cls-7" d="M499.77,470.12c4-2.4,2.42-11.81-3.69-13.43s-22.64.63-24.67,5.22.62,8,5.59,9.33S496.08,472.36,499.77,470.12Z"/><circle class="cls-11" cx="589.5" cy="503.41" r="10.32"/><path class="cls-7" d="M580.23,470.12c-4-2.4-2.42-11.81,3.69-13.43s22.64.63,24.67,5.22-.62,8-5.59,9.33S583.92,472.36,580.23,470.12Z"/><path class="cls-11" d="M558.05,540.42c0,5.07-8.08,15.41-18,15.41s-18-10.34-18-15.41,8.08-9.18,18-9.18S558.05,535.35,558.05,540.42Z"/><g class="cls-12"><path class="cls-13" d="M540,551.13s0,11.88-14,15.64"/><path class="cls-13" d="M540,551.13s0,11.88,14,15.64"/></g><path class="cls-3" d="M428.74,602s72.58,5,101.56,38.64v115.9S494.37,734,449.81,729.05Z"/><path class="cls-9" d="M635.9,593.09S569.6,599,540,640.66v115.9s35.93-22.54,80.49-27.51l30.77-127Z"/><path class="cls-3" d="M651.26,602s-72.58,5-101.56,38.64v115.9s35.93-22.54,80.49-27.51Z"/><rect class="cls-5" x="530.3" y="640.66" width="19.57" height="115.9"/><path class="cls-7" d="M420.87,630.64c8.11-6.09,35.8,2.83,39.34,13.46s9.92,51.39,2.13,58.47-30.3,7.8-44.92-8.15S406.7,641.27,420.87,630.64Z"/><path class="cls-7" d="M659.13,630.64c-8.11-6.09-35.8,2.83-39.34,13.46s-9.92,51.39-2.13,58.47,30.3,7.8,44.92-8.15S673.3,641.27,659.13,630.64Z"/><path class="cls-8" d="M462.34,702.57c3-2.72,3.89-10.43,3.66-19.49-34.46,3.72-50.7-9.58-57.8-19.23-.26,11.59,2.55,23.3,9.22,30.57C432,710.37,454.54,709.66,462.34,702.57Z"/><path class="cls-8" d="M617.66,702.57c-3-2.72-3.89-10.43-3.66-19.49,34.46,3.72,50.7-9.58,57.8-19.23.26,11.59-2.55,23.3-9.22,30.57C648,710.37,625.46,709.66,617.66,702.57Z"/><g class="cls-14"><path class="cls-7" d="M454.06,824.37c-28.85,6.06-34-2.71-34-2.71h0c3,12.87,9.55,19.73,24.16,21,21.07,1.75,36-1.17,40.12-32.49.86-6.65,1.69-12.5,2.77-17.8C486.07,797,479.78,819,454.06,824.37Z"/><path class="cls-7" d="M487.32,791.41v0Z"/></g><g class="cls-14"><path class="cls-7" d="M625.94,824.37c28.85,6.06,34-2.71,34-2.71h0c-3,12.87-9.55,19.73-24.16,21-21.07,1.75-36-1.17-40.12-32.49-.86-6.65-1.69-12.5-2.77-17.8C593.93,797,600.22,819,625.94,824.37Z"/><path class="cls-7" d="M592.68,791.41v0Z"/></g><circle class="cls-15" cx="540" cy="489.83" r="327.83"/><path class="cls-16" d="M609.28,769.41c-205.85,0-372.73-166.88-372.73-372.74q0-17.7,1.63-35a326.79,326.79,0,0,0-26,128.17c0,181.06,146.77,327.83,327.83,327.83a326.47,326.47,0,0,0,209.17-75.4A371.75,371.75,0,0,1,609.28,769.41Z"/><ellipse class="cls-17" cx="705.42" cy="289.58" rx="28.24" ry="66.73" transform="translate(29.09 641.78) rotate(-49.83)"/></g></g></svg>