<svg xmlns="http://www.w3.org/2000/svg" viewBox="0 0 1080 1080"><defs><style>.cls-1{isolation:isolate;}.cls-12,.cls-2,.cls-20,.cls-21,.cls-8{fill:none;stroke-linecap:round;}.cls-2{stroke:#e1ecff;stroke-dasharray:30 30;}.cls-2,.cls-20,.cls-8{stroke-miterlimit:10;}.cls-2,.cls-20,.cls-21{stroke-width:16px;}.cls-16,.cls-19,.cls-3{fill:#fec272;}.cls-4,.cls-7{fill:#ff8d76;}.cls-5{fill:#fea691;}.cls-6{fill:#ffd3b3;}.cls-7{opacity:0.19;}.cls-16,.cls-19,.cls-7{mix-blend-mode:multiply;}.cls-8{stroke:#ff8d76;stroke-width:9px;}.cls-9{fill:#1c3177;}.cls-10{fill:#c7dcf9;}.cls-11,.cls-14{fill:#99adf9;}.cls-11{opacity:0.36;}.cls-12{stroke:#fff;stroke-width:7px;}.cls-12,.cls-21{stroke-linejoin:round;}.cls-13{fill:#f774b9;}.cls-15{fill:#fff;opacity:0.44;}.cls-17{fill:#738de0;}.cls-18{fill:#ff97c9;}.cls-19{opacity:0.41;}.cls-20,.cls-21{stroke:#f774b9;}</style></defs><g class="cls-1"><g id="Layer_3" data-name="Layer 3"><ellipse class="cls-2" cx="265.68" cy="715.55" rx="225.66" ry="67.61"/><ellipse class="cls-2" cx="836.49" cy="715.55" rx="225.66" ry="67.61"/><path class="cls-3" d="M982.39,685.63s20.2-1.53,29.2-23.48-6.81-52.91,9-72.44,34.26-14.05,33.8,0c-.32,9.86-14.17,19.56-14.93,30.73-1.53,22.61,9.14,59.51-16.76,76.84-19.68,13.17-43.82,5.48-43.82,5.48Z"/><path class="cls-4" d="M114.2,690.4s-39.46,17.42-41.78,51.28C70.36,771.75,86.19,802.61,114.2,817c32,16.45,45.9-10.92,35.77-28.17S83.5,745,121.8,711C121.8,696.42,114.2,690.4,114.2,690.4Z"/><path class="cls-4" d="M379,668.35s1.2,26.19,3.37,29.31,21.61,8.53,22.69,14.66,1,16.82-8.89,18.74-30.88,1.44-36.27,1.2-16.58-15.38-21.5-50C367.67,669,379,668.35,379,668.35Z"/><path class="cls-5" d="M327.85,340.65s14.72-28,25-34.5,17.09-3.33,19.62,3.48,3.17,34.18,3.17,34.18,28.49,26.43,39.25,55.71,13.13,88.63-54.76,96.54S222.29,481.5,192.38,461.24c9.81-49.53,23.74-114.1,26.91-132s13-26.71,23.74-26.65,24,25.07,28.17,40.26A416.11,416.11,0,0,1,327.85,340.65Z"/><path class="cls-6" d="M263.63,344.39s-9.37-30.22-17.49-30.07c-7.3.15-10.68,22.84-11.29,34A2.58,2.58,0,0,0,238,351C247.91,348.91,263.63,344.39,263.63,344.39Z"/><path class="cls-6" d="M375.83,343.92s.77-31.88-6-34.27-17.92,17.74-22.37,28a2.59,2.59,0,0,0,2,3.59C359.51,342.72,375.83,343.92,375.83,343.92Z"/><path class="cls-5" d="M192.38,461.24c-4.82,19.47-33.55,71.22-51.12,99.71s-33.07,64.25-32.12,109.41,18,57.5,41.6,64.36,38.16,5,51.88,6.75,28.06,7.7,37.35,0,14.13-12.24,24.47-6.86,36.61,3.9,43.47,2.11,10.24-15.51-1.26-22.58c18.78,6,66.73.5,78.18-45.89,9.18-37.19-18.53-114.1-24.69-131.68-6.32-18-9.18-28-5.7-44.31C331.49,485.77,192.38,461.24,192.38,461.24Z"/><path class="cls-4" d="M243.76,683.55S242.5,710,219.5,714.35c2.95,6,23.95,2,24.9,23,3.9-2.38,8.75-8.12,20-2.74A189.09,189.09,0,0,1,243.76,683.55Z"/><path class="cls-4" d="M172.76,505.51s24.77,27,19.62,54.49c-3.58,19.18-27.22,29.75-29.75,46.21s-20.58,43.88-51,29.7C115.47,588.8,172.76,505.51,172.76,505.51Z"/><path class="cls-7" d="M130.84,579.43c-12.81,25.09-22.46,55-21.7,90.93,1,45.15,18,57.5,41.6,64.36,15.38,4.47,26.91,5.21,36.88,5.69C118.37,703.75,128.29,599.19,130.84,579.43Z"/><path class="cls-6" d="M384.83,668.25c9.18-37.19-18.53-114.1-24.69-131.68a164.24,164.24,0,0,1-5.81-19.07c-4.87-1.26-12.47-2.08-23.63-.47-23,3.32-52.25,69.48-48.5,109,3.48,36.87-.53,79,28.54,91.54a17.27,17.27,0,0,0-4.09-3.45C325.43,720.16,373.38,714.64,384.83,668.25Z"/><path class="cls-8" d="M280.27,583.08c-.08,24.13,2.27,48.2,4.63,72.21,1.25,12.76,2.5,25.57,5.3,38.08,1,4.31,2.14,8.66,4.55,12.36s6.26,6.69,10.66,7.07"/><path class="cls-8" d="M233,627.58c3,32,12.7,63,23.4,93.38,1.47,4.18,3.05,8.49,6.14,11.66"/><path class="cls-8" d="M206.12,626.05c5.44,2.51,10.09,6.43,14.6,10.38a73.7,73.7,0,0,1,10.15,10.22c6.8,8.82,9.6,20.08,11,31.12a42,42,0,0,1,.13,13c-1.81,9.71-9.55,17.56-18.54,21.63s-19.13,4.86-29,4.67"/><path class="cls-8" d="M216,715.88l19.1,7.41a21.45,21.45,0,0,1,3.61,1.66,11,11,0,0,1,5,10.57"/><path class="cls-8" d="M303,725.23a17.85,17.85,0,0,1,1.6,9.58"/><path class="cls-8" d="M284.56,725.56c1.73,3.06,1.66,6.76,1.56,10.27"/><path class="cls-9" d="M394,394.47c-2.19-1.92-20.74-2.38-22.69-1.17s.21,14.35,11.34,14.35S395.73,395.94,394,394.47Z"/><path class="cls-9" d="M314.27,394.47c-2.19-1.92-20.73-2.38-22.68-1.17s.21,14.35,11.34,14.35S316,395.94,314.27,394.47Z"/><path class="cls-8" d="M344.71,343.22a86.15,86.15,0,0,0-15.4-.5"/><path class="cls-8" d="M268.82,345.43a29.92,29.92,0,0,0-11.51,2.33"/><path class="cls-10" d="M420.21,413.42h0S394,425.26,346.29,427.27,259.52,419,259.52,419c3.57,33.23-22.55,45.62-22.55,45.62,11,16.61,35.86,28.07,35.86,28.07l4.37,1.2c26.17,4.86,55,6.8,83.43,3.49C419.93,490.49,426.48,445,420.21,413.42Z"/><path class="cls-11" d="M422.1,430.56l-.09.07c-.17.16-18.16,16.06-71.61,18.17-54,2.12-88.5-16.08-88.92-16.31a3.53,3.53,0,0,0-2.12-.38,45.15,45.15,0,0,1-1.37,6.44l.15.1c1.38.74,32.55,17.32,83.29,17.32,3,0,6.1-.06,9.24-.18,41.32-1.62,62.48-11.19,71.18-16.51C422.08,436.36,422.16,433.44,422.1,430.56Z"/><path class="cls-11" d="M416.07,462.43c-5.89,3.63-24.53,12.57-67,14.24-54.09,2.13-97.55-23.93-98-24.19l0,0a45.71,45.71,0,0,1-4.54,5.16,3.34,3.34,0,0,0,.92.83c1.77,1.08,42.18,25.35,95.17,25.35,2.22,0,4.47,0,6.73-.13,30.32-1.19,49.13-6,60.16-10.29A55.26,55.26,0,0,0,416.07,462.43Z"/><path class="cls-12" d="M418.77,413.42h0S393,425.07,346,427.05s-85.39-8.12-85.39-8.12c3.52,32.7-22.18,44.9-22.18,44.9,7.7,19.63,35.29,31.71,35.29,31.71"/><path class="cls-13" d="M353.49,497.69s-86.09,7.23-161.11-36.45c-4.06,11.72-9.6,24.21-9.6,24.21s74.62,45.29,171.8,33.21C358.07,512.9,353.49,497.69,353.49,497.69Z"/><ellipse class="cls-14" cx="350.54" cy="532.82" rx="17.2" ry="16.1"/><ellipse class="cls-9" cx="352.39" cy="531.38" rx="7.84" ry="4.37" transform="translate(-67.95 51.95) rotate(-7.69)"/><path class="cls-9" d="M349.18,533.33a33.6,33.6,0,0,1,1.87,15.56,18,18,0,0,0,7.17-1.68,39.79,39.79,0,0,0-2.63-16.69Z"/><path class="cls-12" d="M260.63,418.93s-35.56-17.91-55.31-26.3"/><path class="cls-12" d="M238.82,464.71s-28.2-3-46.44-6.49"/><path class="cls-5" d="M720.06,668.35s-1.2,26.19-3.36,29.31-21.61,8.53-22.69,14.66-1,16.82,8.89,18.74,30.87,1.44,36.27,1.2,16.57-15.38,21.49-50C731.35,669,720.06,668.35,720.06,668.35Z"/><path class="cls-3" d="M771.17,340.65s-14.72-28-25-34.5-17.1-3.33-19.63,3.48-3.16,34.18-3.16,34.18-28.49,26.43-39.25,55.71S671,488.15,738.89,496.06s137.84-14.56,167.75-34.82c-9.81-49.53-23.74-114.1-26.9-132s-13-26.71-23.74-26.65-24.06,25.07-28.17,40.26A416.27,416.27,0,0,0,771.17,340.65Z"/><path class="cls-15" d="M835.39,344.39s9.37-30.22,17.5-30.07c7.29.15,10.68,22.84,11.29,34A2.59,2.59,0,0,1,861,351C851.12,348.91,835.39,344.39,835.39,344.39Z"/><path class="cls-15" d="M723.19,343.92s-.76-31.88,6-34.27,17.92,17.74,22.37,28a2.6,2.6,0,0,1-2,3.59C739.51,342.72,723.19,343.92,723.19,343.92Z"/><path class="cls-3" d="M906.64,461.24c4.83,19.47,33.55,71.22,51.12,99.71s33.08,64.25,32.13,109.41-18,57.5-41.6,64.36-38.17,5-51.88,6.75-28.07,7.7-37.35,0-14.14-12.24-24.48-6.86-36.61,3.9-43.47,2.11-10.23-15.51,1.27-22.58c-18.78,6-66.73.5-78.18-45.89-9.18-37.19,18.53-114.1,24.69-131.68,6.31-18,9.17-28,5.69-44.31C767.53,485.77,906.64,461.24,906.64,461.24Z"/><path class="cls-16" d="M855.26,683.55s1.27,26.48,24.27,30.8c-3,6-23.95,2-24.9,23-3.91-2.38-8.76-8.12-20-2.74A188.7,188.7,0,0,0,855.26,683.55Z"/><path class="cls-15" d="M714.2,668.25c-9.18-37.19,18.53-114.1,24.69-131.68a166,166,0,0,0,5.8-19.07c4.87-1.26,12.47-2.08,23.63-.47,23,3.32,52.25,69.48,48.51,109-3.49,36.87.53,79-28.55,91.54a17.53,17.53,0,0,1,4.1-3.45C773.6,720.16,725.65,714.64,714.2,668.25Z"/><path class="cls-8" d="M818.76,583.08c.08,24.13-2.28,48.2-4.63,72.21-1.25,12.76-2.51,25.57-5.3,38.08-1,4.31-2.14,8.66-4.55,12.36s-6.26,6.69-10.66,7.07"/><path class="cls-8" d="M866,627.58c-3,32-12.69,63-23.4,93.38-1.47,4.18-3,8.49-6.13,11.66"/><path class="cls-8" d="M892.91,626.05c-5.45,2.51-10.1,6.43-14.61,10.38a74.26,74.26,0,0,0-10.15,10.22c-6.79,8.82-9.59,20.08-11,31.12a42.26,42.26,0,0,0-.13,13c1.81,9.71,9.55,17.56,18.55,21.63s19.12,4.86,29,4.67"/><path class="cls-8" d="M883.06,715.88,864,723.29a21.82,21.82,0,0,0-3.61,1.66,11,11,0,0,0-5,10.57"/><path class="cls-8" d="M796,725.23a17.85,17.85,0,0,0-1.59,9.58"/><path class="cls-8" d="M814.46,725.56c-1.72,3.06-1.66,6.76-1.55,10.27"/><path class="cls-10" d="M678.81,413.42h0s26.19,11.84,73.92,13.85S839.51,419,839.51,419c-3.57,33.23,22.54,45.62,22.54,45.62-11,16.61-35.86,28.07-35.86,28.07l-4.36,1.2c-26.17,4.86-55,6.8-83.44,3.49C679.1,490.49,672.54,445,678.81,413.42Z"/><path class="cls-11" d="M676.92,430.56l.09.07c.18.16,18.16,16.06,71.61,18.17,54,2.12,88.5-16.08,88.93-16.31a3.5,3.5,0,0,1,2.11-.38,45.15,45.15,0,0,0,1.37,6.44s-.09.07-.15.1c-1.37.74-32.55,17.32-83.28,17.32q-4.53,0-9.25-.18c-41.32-1.62-62.48-11.19-71.18-16.51C676.94,436.36,676.86,433.44,676.92,430.56Z"/><path class="cls-11" d="M683,462.43c5.89,3.63,24.53,12.57,67,14.24,54.09,2.13,97.54-23.93,98-24.19,0,0,0,0,0,0a45.71,45.71,0,0,0,4.54,5.16,3.34,3.34,0,0,1-.92.83c-1.76,1.08-42.17,25.35-95.16,25.35-2.23,0-4.47,0-6.74-.13-30.32-1.19-49.12-6-60.15-10.29A54.84,54.84,0,0,1,683,462.43Z"/><path class="cls-12" d="M680.26,413.42h0S706,425.07,753,427.05s85.39-8.12,85.39-8.12c-3.51,32.7,22.19,44.9,22.19,44.9-7.7,19.63-35.29,31.71-35.29,31.71"/><path class="cls-17" d="M745.54,497.69s86.09,7.23,161.1-36.45c4.06,11.72,9.6,24.21,9.6,24.21s-74.62,45.29-171.8,33.21C741,512.9,745.54,497.69,745.54,497.69Z"/><ellipse class="cls-18" cx="748.49" cy="532.82" rx="17.2" ry="16.1"/><ellipse class="cls-9" cx="746.64" cy="531.38" rx="4.37" ry="7.84" transform="translate(120.1 1200.18) rotate(-82.31)"/><path class="cls-9" d="M749.85,533.33A33.6,33.6,0,0,0,748,548.89a17.93,17.93,0,0,1-7.17-1.68,39.6,39.6,0,0,1,2.63-16.69Z"/><path class="cls-12" d="M838.39,418.93S874,401,893.71,392.63"/><path class="cls-12" d="M860.2,464.71s28.21-3,46.44-6.49"/><circle class="cls-9" cx="711.13" cy="397.25" r="9.61"/><circle class="cls-9" cx="779.47" cy="399.13" r="9.61"/><path class="cls-4" d="M920.54,494.3s-3.34,10.46-18.71,20.11S854.42,532.2,857.05,541s35.39,5.29,54.36-1,26.71-12.62,26.71-12.62Z"/><path class="cls-4" d="M943.8,537.41A82.07,82.07,0,0,1,922,551.07c-12.07,4.83-23.7,8.78-21.29,13.83s18.88,6.81,33.15,4,22.87-9.55,22.87-9.55Z"/><path class="cls-4" d="M962.06,568.15s-4.18,12-19.69,17-32.66,10.83-31,19.61,32.92.29,39.26,4.09,5.38,17.25-9.11,31.05c-10.73,10.21-31.68,13.44-20.85,24.27s53.34-2.85,67-26.23C984.59,612.1,969.61,583.11,962.06,568.15Z"/><path class="cls-4" d="M786.47,340.18a29.74,29.74,0,0,0-8.56,11.06c-2.26,4.76-5.23,16,2.53,17,13.39,1.7,14.69-22,26.33-27.16C797.63,340.18,786.47,340.18,786.47,340.18Z"/><path class="cls-4" d="M813.13,341.53a19.15,19.15,0,0,0-7.15,8c-2.78,6.29-2.31,12.88,3,13.53s10.79-16.62,19.22-20.27C819.9,342,813.13,341.53,813.13,341.53Z"/><path class="cls-4" d="M780.44,340.51s-4.54,1.66-8.85,9.56c-2.55,4.67-5.13,13.06-11.93,13s-6.83-14.7,11.51-22.39C773.49,340.58,780.44,340.51,780.44,340.51Z"/><path class="cls-19" d="M968.19,579.43c12.81,25.09,22.45,55,21.7,90.93-.95,45.15-18,57.5-41.6,64.36-15.39,4.47-26.92,5.21-36.88,5.69C980.65,703.75,970.73,599.19,968.19,579.43Z"/><line class="cls-20" x1="412.54" y1="557" x2="682.95" y2="557"/><polyline class="cls-21" points="427.45 581.44 399.83 557 427.45 532.56"/><polyline class="cls-21" points="671.57 581.44 699.2 557 671.57 532.56"/></g></g></svg>