<svg id="Layer_3" data-name="Layer 3" xmlns="http://www.w3.org/2000/svg" viewBox="0 0 1080 1080"><defs><style>.cls-1{fill:#c7dcf9;}.cls-2,.cls-9{fill:#99adf9;}.cls-3{fill:#1c3177;}.cls-4,.cls-7{fill:none;stroke-linecap:round;}.cls-4{stroke:#1c3177;stroke-linejoin:round;stroke-width:16px;}.cls-5,.cls-6{fill:#ff97c9;}.cls-6{opacity:0.44;}.cls-7{stroke:#99adf9;stroke-miterlimit:10;stroke-width:13px;}.cls-8{fill:#f774b9;}.cls-9{opacity:0.3;}</style></defs><path class="cls-1" d="M883.05,880.88C855.81,855.54,787.81,831.5,725.28,808h0c-10.79-7-18.84-11.88-27.38-21.8-17.27-20,.92-57.57,42.23-77.59-78.68-24.4-321.34,30.15-321.34,30.15s56.76,15.08,43.54,50.16a36.67,36.67,0,0,1-26.27,22.44C326.27,836.88,264.63,911.65,262,957.56c-2.77,47.67,40.06,80.14,103.62,74.62s216.28-42.71,226.61-69.09a80.42,80.42,0,0,0,5.07-21.42h.28c6,17.94,22,43.55,59.85,51.82,47.41,10.36,211.63,13.13,233.74-19.34C904.26,954.87,922.81,917.87,883.05,880.88Z"/><circle class="cls-1" cx="219.37" cy="364.75" r="123.66"/><circle class="cls-2" cx="232.2" cy="369.18" r="71.08"/><circle class="cls-1" cx="651.2" cy="170.9" r="123.66"/><circle class="cls-2" cx="646.77" cy="183.73" r="71.08"/><path class="cls-1" d="M866.76,356.33C955.59,494,942.47,659,681.28,727.2c-201,52.5-333.84,30-402.65-111.31S275.85,300.64,435.76,222.8,781.52,224.22,866.76,356.33Z"/><path class="cls-2" d="M779,507c23.14,48.41-12.3,118.83-81.62,152S557.8,681.51,534.66,633.1s24.52-129.59,93.84-162.73S755.85,458.62,779,507Z"/><path class="cls-2" d="M539.86,368.92c-14.18-7.7-100.32-2-101.45,22.36s79.15,25,97.31,14.25C552.53,395.61,554.46,376.85,539.86,368.92Z"/><path class="cls-3" d="M708.74,456.92c3,6.56-1.6,23.83-14.31,29.61s-28.73-2.12-31.72-8.69,4.91-16.56,17.62-22.34S705.76,450.36,708.74,456.92Z"/><path class="cls-4" d="M463.09,485.6s45.38-12.12,86.55-5.24c-28.7,7.66-64.73,38.74-64.73,38.74"/><path class="cls-2" d="M660.72,323.55c7.08-14.49,80.56-59.82,95.62-40.61s-50,66.25-71,68C665.88,352.64,653.43,338.48,660.72,323.55Z"/><path class="cls-4" d="M773.52,369.16s-33.76,15.5-56.39,48.59c27.83-10.4,71.74-16.3,71.74-16.3"/><path class="cls-3" d="M609,653.2c-12.65-6.55-19-59.74,5.56-89.83,25.37-31,65.63-45,94.22-41.14,23.55,3.17,51.9,51.15,43.69,67.23C741.22,611.54,638.15,668.3,609,653.2Z"/><path class="cls-5" d="M624.87,635.3c-8.6-.18,8.26-35.1,36.5-50.75s57.72-2.54,57.06,5.26S661.3,636.06,624.87,635.3Z"/><ellipse class="cls-6" cx="578.56" cy="770.26" rx="83.52" ry="41.29"/><path class="cls-7" d="M360.3,912.89S512.75,845.18,533,847.49s58,21.18,64.81,89.35"/><circle class="cls-8" cx="578.56" cy="776.22" r="34.1"/><path class="cls-8" d="M561.71,750.05h33.71l-14.57-27.24a2.6,2.6,0,0,0-4.57,0Z"/><path class="cls-8" d="M585.15,745.8,609,769.64l9-29.57a2.59,2.59,0,0,0-3.23-3.23Z"/><path class="cls-8" d="M604.74,759.37v33.71L632,778.51a2.6,2.6,0,0,0,0-4.57Z"/><path class="cls-8" d="M609,782.81l-23.84,23.84,29.57,9a2.59,2.59,0,0,0,3.23-3.23Z"/><path class="cls-8" d="M595.42,802.4H561.71l14.57,27.24a2.6,2.6,0,0,0,4.57,0Z"/><path class="cls-8" d="M572,806.65l-23.84-23.84-9,29.57a2.59,2.59,0,0,0,3.23,3.23Z"/><path class="cls-8" d="M552.39,793.08V759.37l-27.24,14.57a2.59,2.59,0,0,0,0,4.57Z"/><path class="cls-8" d="M548.14,769.64,572,745.8l-29.57-9a2.59,2.59,0,0,0-3.23,3.23Z"/><path class="cls-7" d="M596,923.2c-.92-22.57,8-64.2,34.7-67.88s111.92,10.13,175.94,41.91"/><path class="cls-9" d="M891.14,974.15c8.35-12.26,18.88-31.69,15.22-53.72h0c-42.19,47-188.73,25-234.39,13s-55-34-62.92-65.87c-10.83,15.21-14.14,45.36-14.14,45.36s1.66-12.24-21.36-42c-15.37,32.46-55.75,66.32-128.85,96.62s-166.61,12.51-182.18-15.21h0c-.27,1.78-.46,3.53-.55,5.23-2.77,47.67,40.06,80.14,103.62,74.62s216.28-42.71,226.61-69.09a80.42,80.42,0,0,0,5.07-21.42h.28c6,17.94,22,43.55,59.85,51.82C704.81,1003.85,869,1006.62,891.14,974.15Z"/></svg>