<svg id="Layer_3" data-name="Layer 3" xmlns="http://www.w3.org/2000/svg" viewBox="0 0 1080 1080"><defs><style>.cls-1{fill:#738de0;}.cls-2,.cls-5{fill:#1c3177;}.cls-2{opacity:0.29;}.cls-3{fill:#c7dcf9;}.cls-4{fill:#99adf9;opacity:0.31;}.cls-12,.cls-6,.cls-7,.cls-9{fill:none;stroke-linecap:round;stroke-miterlimit:10;}.cls-6,.cls-7{stroke:#738de0;stroke-width:6px;}.cls-7{opacity:0.54;}.cls-8{fill:#ff97c9;}.cls-9{stroke:#f774b9;stroke-width:8px;}.cls-10{fill:#fec272;}.cls-11{fill:#f774b9;}.cls-12{stroke:#fff;stroke-width:19px;}.cls-13{fill:#ff8d76;opacity:0.58;}</style></defs><path class="cls-1" d="M365,224.07c-29-4.19-111.31,123.5-140.1,177.81s-50.68,157.55-28.16,188.84,176.8,20,208.24-7.51S413.08,231,365,224.07Z"/><path class="cls-2" d="M221.79,408C194.57,463.54,175,560.56,196.71,590.72c16,22.21,98.36,23,156.06,11.7C283.3,570.26,242.32,473.59,221.79,408Z"/><path class="cls-3" d="M451.15,163.07c-49,17.71-106.84,60.73-124.83,143.39s-19.68,109.09-30.93,120.9-41,24.74-54.54,55.67S237.55,637.61,292,677c58,42,162,58.53,253.25,56.37,119.21-2.81,229.92-54,284.1-94.49,48.92-36.55,86.25-128.88,75-234.6S817.88,190.18,750.3,160.82C681.7,131,518.07,138.89,451.15,163.07Z"/><path class="cls-4" d="M574,731.79c108-9.43,205.55-55.68,255.34-92.89,48.92-36.55,86.25-128.88,75-234.6-.74-6.93-1.76-13.88-3-20.81-57.34-2.23-108.18-4.07-108.18-4.07S795.43,637.89,574,731.79Z"/><path class="cls-4" d="M324.78,440.1c-14.31-19,17.49-105.28,146.87-108.5,84.48-2.11,156.34,13.34,189,47.4,17.35,18.1,38.66,59.33,7.93,80.93-55.38,38.92-107.22-25.86-187.26-29.08C424.39,428.56,358.75,485.18,324.78,440.1Z"/><ellipse class="cls-5" cx="376.79" cy="422.78" rx="28.82" ry="18.02" transform="translate(-107.27 128.84) rotate(-17.02)"/><path class="cls-1" d="M421.34,327.46c-4.25-12.75-48.39,0-67.29,10.43s-20.8,32.54-6.81,40.47S428.14,347.9,421.34,327.46Z"/><ellipse class="cls-5" cx="604.19" cy="424.7" rx="18.15" ry="33.17" transform="translate(68.8 933.41) rotate(-78.64)"/><path class="cls-1" d="M557.66,330.8c4.06-13,53.33-2.6,74.68,6.8s24.5,31.38,9.47,40S551.15,351.58,557.66,330.8Z"/><path class="cls-6" d="M373.67,455.18a130.3,130.3,0,0,0,31.28-8.6"/><path class="cls-6" d="M569.05,449.54s14.9,12.83,35.14,15.34"/><path class="cls-7" d="M457,515s-9.18,33.72-7.09,64.63"/><path class="cls-5" d="M513.25,489.83c0,11.38-31.49,38.11-61.39,38.11S405,501.21,405,489.83s24.24-20.61,54.15-20.61S513.25,478.45,513.25,489.83Z"/><path class="cls-5" d="M379.24,634.42c.37-8.07,63.18-37.62,72.52-36.73s39,19.33,73,32.72c13.82,5.45,19,14.27,9.23,17.84s-56.39,7.74-84.15,4.17S378.75,645.13,379.24,634.42Z"/><path class="cls-8" d="M445.85,619.92c-26.42,0-50.31,7.91-58.68,22.8s-13.28,45.68,16.61,55.5,70-.89,83.43-16.06c10-11.37,16.68-25.49,24.07-34.11a7.91,7.91,0,0,0-2.46-12.15C490.19,626.4,469.39,619.92,445.85,619.92Z"/><path class="cls-9" d="M426.74,672.05s4-29.6,20.22-46.32"/><path class="cls-1" d="M734.88,281s44.43,82.6,51.32,138.92-30,162.08-3.76,188.36,79.47,43.11,127.66,17.49,79.47-69.43,75.72-105.1S964.17,293.79,807,202C745.52,179,699.84,208.37,734.88,281Z"/><path class="cls-10" d="M833.7,836.48a75.87,75.87,0,1,0-130-76.34,51.6,51.6,0,0,1-47.53,30.24l-273.46-1.52a51.62,51.62,0,0,1-47.19-30.76A75.86,75.86,0,1,0,204.61,833a22.85,22.85,0,0,1-.16,27.29,75.87,75.87,0,1,0,130,76.34A51.61,51.61,0,0,1,382,906.38l273.46,1.52a51.61,51.61,0,0,1,47.19,30.76,75.87,75.87,0,1,0,130.87-74.89A22.85,22.85,0,0,1,833.7,836.48Z"/><circle class="cls-11" cx="199.95" cy="674.11" r="114.26"/><line class="cls-12" x1="154.01" y1="628.18" x2="245.89" y2="720.05"/><line class="cls-12" x1="245.89" y1="628.18" x2="154.01" y2="720.05"/><path class="cls-2" d="M985.82,520.63c-2.86-27.11-13.88-144.07-88.05-239h0S969,508.27,796.89,619.92c28.62,18.88,72.68,27.35,113.21,5.81C958.28,600.11,989.57,556.3,985.82,520.63Z"/><path class="cls-13" d="M348,918.67h0C261,974.81,197.5,938.5,196.58,938a75.83,75.83,0,0,0,137.91-1.36A50.33,50.33,0,0,1,348,918.67Z"/><path class="cls-13" d="M848.13,911.17a75.55,75.55,0,0,0-14.59-47.4,22.85,22.85,0,0,1,.16-27.29,75.83,75.83,0,0,0-34-116.42c0,.33.51,79.41-69.06,126.26C664.76,890.66,552.36,907.33,487,907l168.53.94a51.61,51.61,0,0,1,47.19,30.76,75.87,75.87,0,0,0,145.46-27.49Z"/></svg>