<svg xmlns="http://www.w3.org/2000/svg" viewBox="0 0 1080 1080"><defs><style>.cls-1{isolation:isolate;}.cls-2{fill:#c7dcf9;}.cls-13,.cls-3,.cls-6{fill:#99adf9;}.cls-10,.cls-3{opacity:0.27;}.cls-4{fill:#e1ecff;}.cls-14,.cls-15,.cls-16,.cls-18,.cls-19,.cls-5{fill:none;stroke-linecap:round;stroke-miterlimit:10;}.cls-14,.cls-15,.cls-16,.cls-5{stroke:#c7dcf9;}.cls-5{stroke-width:3px;}.cls-6{opacity:0.46;}.cls-6,.cls-8{mix-blend-mode:multiply;}.cls-11,.cls-7,.cls-8{fill:#f774b9;}.cls-8{opacity:0.34;}.cls-9{fill:#ff97c9;}.cls-10{fill:#ffd3b3;}.cls-11{opacity:0.54;}.cls-12{fill:#1c3177;}.cls-14,.cls-15,.cls-16,.cls-18,.cls-19{stroke-width:4px;}.cls-15{stroke-dasharray:11.38 11.38;}.cls-16,.cls-19{stroke-dasharray:11.98 11.98;}.cls-17{opacity:0.48;}.cls-18,.cls-19{stroke:#99adf9;}</style></defs><g class="cls-1"><g id="Layer_3" data-name="Layer 3"><path class="cls-2" d="M193.17,610.82V737.7c0,14.18,31.06,25.68,69.37,25.68s69.36-11.5,69.36-25.68V610.82Z"/><path class="cls-3" d="M193.17,737.7c0,13,26,23.68,59.71,25.42V610.82H193.17Z"/><ellipse class="cls-4" cx="262.54" cy="610.82" rx="69.37" ry="25.68"/><path class="cls-5" d="M278.57,627.15c-5.06.51-10.45.78-16,.78-19.32,0-36.24-3.29-45.6-8.22"/><ellipse class="cls-2" cx="262.54" cy="610.82" rx="22.83" ry="8.45"/><path class="cls-2" d="M331.9,610.82V737.7c0,14.18,31.06,25.68,69.37,25.68s69.36-11.5,69.36-25.68V610.82Z"/><path class="cls-3" d="M331.9,737.7c0,13,26,23.68,59.71,25.42V610.82H331.9Z"/><ellipse class="cls-4" cx="401.27" cy="610.82" rx="69.37" ry="25.68"/><path class="cls-5" d="M417.3,627.15c-5.06.51-10.45.78-16,.78-19.32,0-36.24-3.29-45.6-8.22"/><ellipse class="cls-2" cx="401.27" cy="610.82" rx="22.83" ry="8.45"/><path class="cls-2" d="M470.63,610.82V737.7c0,14.18,31.06,25.68,69.37,25.68s69.37-11.5,69.37-25.68V610.82Z"/><path class="cls-3" d="M470.63,737.7c0,13,26,23.68,59.71,25.42V610.82H470.63Z"/><ellipse class="cls-4" cx="540" cy="610.82" rx="69.37" ry="25.68"/><path class="cls-5" d="M556,627.15a160.44,160.44,0,0,1-16,.78c-19.32,0-36.23-3.29-45.59-8.22"/><ellipse class="cls-2" cx="540" cy="610.82" rx="22.83" ry="8.45"/><path class="cls-2" d="M609.37,610.82V737.7c0,14.18,31,25.68,69.36,25.68s69.37-11.5,69.37-25.68V610.82Z"/><path class="cls-3" d="M609.37,737.7c0,13,26,23.68,59.7,25.42V610.82h-59.7Z"/><ellipse class="cls-4" cx="678.73" cy="610.82" rx="69.37" ry="25.68"/><path class="cls-5" d="M694.77,627.15c-5.07.51-10.45.78-16,.78-19.31,0-36.23-3.29-45.59-8.22"/><ellipse class="cls-2" cx="678.73" cy="610.82" rx="22.83" ry="8.45"/><path class="cls-2" d="M748.1,610.82V737.7c0,14.18,31,25.68,69.36,25.68s69.37-11.5,69.37-25.68V610.82Z"/><path class="cls-3" d="M748.1,737.7c0,13,26,23.68,59.71,25.42V610.82H748.1Z"/><ellipse class="cls-4" cx="817.46" cy="610.82" rx="69.37" ry="25.68"/><path class="cls-5" d="M833.5,627.15c-5.06.51-10.45.78-16,.78-19.31,0-36.23-3.29-45.59-8.22"/><ellipse class="cls-2" cx="817.46" cy="610.82" rx="22.83" ry="8.45"/><rect class="cls-6" x="237.08" y="586.18" width="605.83" height="36.38" rx="18.19"/><rect class="cls-7" x="482.85" y="432.45" width="114.29" height="151.94"/><path class="cls-2" d="M262.54,463.87V590.75c0,14.19,31,25.69,69.36,25.69s69.37-11.5,69.37-25.69V463.87Z"/><path class="cls-3" d="M262.54,590.75c0,13,26,23.69,59.7,25.43V463.87h-59.7Z"/><ellipse class="cls-4" cx="331.9" cy="463.87" rx="69.37" ry="25.68"/><path class="cls-5" d="M347.94,480.2a157.63,157.63,0,0,1-16,.79c-19.31,0-36.23-3.29-45.59-8.23"/><ellipse class="cls-2" cx="331.9" cy="463.87" rx="22.83" ry="8.45"/><path class="cls-2" d="M401.27,463.87V590.75c0,14.19,31.05,25.69,69.36,25.69S540,604.94,540,590.75V463.87Z"/><path class="cls-3" d="M401.27,590.75c0,13,26,23.69,59.71,25.43V463.87H401.27Z"/><ellipse class="cls-4" cx="470.63" cy="463.87" rx="69.37" ry="25.68"/><path class="cls-5" d="M486.67,480.2a157.63,157.63,0,0,1-16,.79c-19.31,0-36.23-3.29-45.59-8.23"/><ellipse class="cls-2" cx="470.63" cy="463.87" rx="22.83" ry="8.45"/><path class="cls-2" d="M540,463.87V590.75c0,14.19,31.06,25.69,69.37,25.69s69.36-11.5,69.36-25.69V463.87Z"/><path class="cls-3" d="M540,590.75c0,13,26,23.69,59.71,25.43V463.87H540Z"/><ellipse class="cls-4" cx="609.37" cy="463.87" rx="69.37" ry="25.68"/><path class="cls-5" d="M625.4,480.2a157.57,157.57,0,0,1-16,.79c-19.32,0-36.24-3.29-45.6-8.23"/><ellipse class="cls-2" cx="609.37" cy="463.87" rx="22.83" ry="8.45"/><path class="cls-2" d="M678.73,463.87V590.75c0,14.19,31.06,25.69,69.37,25.69s69.36-11.5,69.36-25.69V463.87Z"/><path class="cls-3" d="M678.73,590.75c0,13,26,23.69,59.71,25.43V463.87H678.73Z"/><ellipse class="cls-4" cx="748.1" cy="463.87" rx="69.37" ry="25.68"/><path class="cls-5" d="M764.13,480.2a157.57,157.57,0,0,1-16,.79c-19.32,0-36.24-3.29-45.6-8.23"/><ellipse class="cls-2" cx="748.1" cy="463.87" rx="22.83" ry="8.45"/><path class="cls-7" d="M599.92,255.87c17.71,5.23,42.3,30.69,54.88,46.5s45.37,21.95,53.27,39.8-1.46,39.51-26.63,37.17-52.68-22.24-66.73-44.19S599.92,255.87,599.92,255.87Z"/><path class="cls-7" d="M480.08,255.87c-17.71,5.23-42.3,30.69-54.88,46.5s-45.37,21.95-53.27,39.8,1.46,39.51,26.63,37.17,52.68-22.24,66.73-44.19S480.08,255.87,480.08,255.87Z"/><path class="cls-8" d="M436.9,361.49c-43.91,5.2-47-20-44-37.87-9.24,5.13-17.5,10.71-21,18.55-7.91,17.85,1.46,39.51,26.63,37.17,12.78-1.19,26.16-6.91,38.07-15.12C436.75,363.32,436.84,362.42,436.9,361.49Z"/><path class="cls-8" d="M643.1,361.49c43.91,5.2,47-20,44-37.87,9.24,5.13,17.5,10.71,21,18.55,7.91,17.85-1.46,39.51-26.63,37.17-12.78-1.19-26.16-6.91-38.07-15.12C643.25,363.32,643.16,362.42,643.1,361.49Z"/><path class="cls-9" d="M596,448.56c50.92,0,64.31-22.83,67.17-50.49,3.36-32.61-21.08-53.12-26.35-76.83S622.43,267.08,598.17,255c-14-7-37.32-9.44-58.17-9.44s-44.12,2.42-58.17,9.44c-24.26,12.13-33.37,42.59-38.63,66.29s-29.71,44.22-26.35,76.83c2.86,27.66,16.25,50.49,67.17,50.49Z"/><ellipse class="cls-10" cx="540" cy="389.89" rx="52.76" ry="33.94"/><path class="cls-11" d="M592.32,349c0,12.19-24.31,4.56-54.3,4.56s-54.29,7.63-54.29-4.56S508,327,538,327,592.32,336.84,592.32,349Z"/><path class="cls-12" d="M498.8,343.08c0,5-5,9.07-11.12,9.07s-11.13-4.06-11.13-9.07,5-6.44,11.13-6.44S498.8,338.07,498.8,343.08Z"/><path class="cls-12" d="M581.2,343.08c0,5,5,9.07,11.12,9.07s11.13-4.06,11.13-9.07-5-6.44-11.13-6.44S581.2,338.07,581.2,343.08Z"/><path class="cls-4" d="M538,397.5a9.34,9.34,0,0,1-9.28,9.33,9.46,9.46,0,0,1-7.9-4.64c-4.19-6.65,1.36-11.63,6.51-19.88a1.56,1.56,0,0,1,2.66,0C533.76,388.43,538,392.9,538,397.5Z"/><path class="cls-12" d="M561.51,370.31C561.51,379,551.88,386,540,386s-21.51-7-21.51-15.69,9.63-11.13,21.51-11.13S561.51,361.65,561.51,370.31Z"/><path class="cls-11" d="M420.92,369.22a62.19,62.19,0,0,0-4.07,28.85c2.86,27.66,16.25,50.49,67.17,50.49h36.59C419.44,439.35,420.92,369.36,420.92,369.22Z"/><path class="cls-11" d="M659.08,369.22a62.19,62.19,0,0,1,4.07,28.85c-2.86,27.66-16.25,50.49-67.17,50.49H559.39C660.56,439.35,659.08,369.36,659.08,369.22Z"/><path class="cls-9" d="M399.58,416h13.69a29,29,0,0,1,29,29v5.23a9.3,9.3,0,0,1-9.3,9.3H379.84a9.3,9.3,0,0,1-9.3-9.3V445a29,29,0,0,1,29-29Z"/><path class="cls-11" d="M372.42,434.71A29,29,0,0,0,370.54,445v5.24a9.3,9.3,0,0,0,9.3,9.3h47.62C393,457.34,372.42,434.71,372.42,434.71Z"/><path class="cls-9" d="M646,416h53.18a9.3,9.3,0,0,1,9.3,9.3v5.23a29,29,0,0,1-29,29H665.72a29,29,0,0,1-29-29v-5.23A9.3,9.3,0,0,1,646,416Z" transform="translate(1345.14 875.5) rotate(180)"/><path class="cls-11" d="M706.58,434.71A29,29,0,0,1,708.46,445v5.24a9.3,9.3,0,0,1-9.3,9.3H651.54C686,457.34,706.57,434.71,706.58,434.71Z"/><path class="cls-13" d="M932.2,669.37H805.32c-14.18,0-25.68,31-25.68,69.36s11.5,69.37,25.68,69.37H932.2Z"/><ellipse class="cls-2" cx="932.2" cy="738.73" rx="25.68" ry="69.37"/><path class="cls-5" d="M915.87,754.77a160.56,160.56,0,0,1-.79-16c0-19.31,3.3-36.23,8.23-45.59"/><ellipse class="cls-13" cx="932.2" cy="738.73" rx="8.45" ry="22.83"/><path class="cls-4" d="M805.32,669.37c-14.07,1.68-34.85,26.55-39.24,53.19s-2,85.54-48.51,105.66H872.18S901,810.07,905.1,757.1c2.84-36.62,6.15-87.73,27.1-87.73Z"/><line class="cls-14" x1="765.74" y1="748.79" x2="771.74" y2="748.79"/><line class="cls-15" x1="783.12" y1="748.79" x2="891.24" y2="748.79"/><line class="cls-14" x1="896.93" y1="748.79" x2="902.93" y2="748.79"/><line class="cls-14" x1="712.71" y1="489.56" x2="712.71" y2="495.56"/><line class="cls-16" x1="712.71" y1="507.54" x2="712.71" y2="597.39"/><line class="cls-14" x1="712.71" y1="603.38" x2="712.71" y2="609.38"/><line class="cls-14" x1="643.1" y1="636.5" x2="643.1" y2="642.5"/><line class="cls-16" x1="643.1" y1="654.48" x2="643.1" y2="744.33"/><line class="cls-14" x1="643.1" y1="750.32" x2="643.1" y2="756.32"/><line class="cls-14" x1="280.32" y1="482.54" x2="280.32" y2="488.54"/><line class="cls-16" x1="280.32" y1="500.52" x2="280.32" y2="590.37"/><line class="cls-14" x1="280.32" y1="596.36" x2="280.32" y2="602.36"/><g class="cls-17"><line class="cls-18" x1="633.93" y1="491.5" x2="633.93" y2="497.5"/><line class="cls-19" x1="633.93" y1="509.48" x2="633.93" y2="599.33"/><line class="cls-18" x1="633.93" y1="605.32" x2="633.93" y2="611.32"/></g><g class="cls-17"><line class="cls-18" x1="480.08" y1="491.5" x2="480.08" y2="497.5"/><line class="cls-19" x1="480.08" y1="509.48" x2="480.08" y2="599.33"/><line class="cls-18" x1="480.08" y1="605.32" x2="480.08" y2="611.32"/></g><g class="cls-17"><line class="cls-18" x1="445.1" y1="633.15" x2="445.1" y2="639.15"/><line class="cls-19" x1="445.1" y1="651.13" x2="445.1" y2="740.99"/><line class="cls-18" x1="445.1" y1="746.98" x2="445.1" y2="752.98"/></g><g class="cls-17"><line class="cls-18" x1="269.78" y1="640.18" x2="269.78" y2="646.18"/><line class="cls-19" x1="269.78" y1="658.16" x2="269.78" y2="748.01"/><line class="cls-18" x1="269.78" y1="754" x2="269.78" y2="760"/></g><g class="cls-17"><line class="cls-18" x1="587.73" y1="634.33" x2="587.73" y2="640.33"/><line class="cls-19" x1="587.73" y1="652.31" x2="587.73" y2="742.16"/><line class="cls-18" x1="587.73" y1="748.15" x2="587.73" y2="754.15"/></g></g></g></svg>