<svg xmlns="http://www.w3.org/2000/svg" viewBox="0 0 1080 1080"><defs><style>.cls-1,.cls-3{fill:#f774b9;}.cls-2{fill:#ff97c9;}.cls-3{opacity:0.58;}.cls-4{fill:#1c3177;}.cls-5{fill:none;stroke:#1c3177;stroke-linecap:round;stroke-miterlimit:10;stroke-width:8px;}.cls-6{fill:#fff;}.cls-7{fill:#e1ecff;}.cls-8{fill:#c7dcf9;}.cls-10,.cls-11,.cls-9{fill:#99adf9;}.cls-9{opacity:0.34;}.cls-11{opacity:0.37;}</style></defs><g id="virus"><circle class="cls-1" cx="576.76" cy="224.75" r="49.68"/><circle class="cls-1" cx="815.9" cy="433.59" r="49.68"/><rect class="cls-1" x="744.04" y="262.66" width="28.79" height="101.13" transform="translate(412.24 -430.74) rotate(42.61)"/><circle class="cls-2" cx="815.9" cy="250.75" r="54.95"/><rect class="cls-1" x="806.67" y="541.77" width="28.79" height="101.13" transform="translate(1653.41 15.96) rotate(109.49)"/><circle class="cls-2" cx="901.09" cy="620.66" r="54.95"/><rect class="cls-1" x="640.25" y="697.71" width="28.79" height="101.13" transform="translate(1511.83 1251.98) rotate(161.62)"/><circle class="cls-2" cx="681.41" cy="828.84" r="54.95"/><rect class="cls-1" x="281.94" y="468.16" width="28.79" height="101.13" transform="matrix(0.05, -1, 1, 0.05, -235.83, 790.2)"/><circle class="cls-2" cx="211.54" cy="514.71" r="54.95"/><rect class="cls-1" x="420.88" y="219.87" width="28.79" height="101.13" transform="translate(-76.61 246.49) rotate(-29.17)"/><circle class="cls-2" cx="578.45" cy="500.19" r="248.73"/><circle class="cls-2" cx="393.9" cy="196.31" r="54.95"/><path class="cls-3" d="M718.54,294.75a247.52,247.52,0,0,1,47.53,119.6c15.94,136.44-81.73,260-218.17,275.92a247.68,247.68,0,0,1-169-41.6c51.34,68.86,136.93,109.26,228.38,98.57,136.44-16,234.12-139.48,218.17-275.92A248.07,248.07,0,0,0,718.54,294.75Z"/><circle class="cls-4" cx="577.65" cy="441.45" r="17.57"/><circle class="cls-4" cx="713.56" cy="441.45" r="17.57"/><path class="cls-5" d="M567.81,396.86s10.64,13.76,34,17.32"/><circle class="cls-1" cx="457.42" cy="505.32" r="49.68"/><path class="cls-6" d="M627.71,468.65c10,2.34,32.53,6.49,49.83,1.06a3.91,3.91,0,0,1,5,4.54c-3.56,16.69-15.73,28-32.93,25.13C629.38,496,624.25,481.28,623,473A3.88,3.88,0,0,1,627.71,468.65Z"/><path class="cls-5" d="M689.8,396.29s11.41-17.86,33.66-12.59"/></g><g id="Virus_4" data-name="Virus 4"><rect class="cls-7" x="953.44" y="808.65" width="5.56" height="19.52" transform="translate(1730.45 -173.92) rotate(87.4)"/><circle class="cls-8" cx="972.59" cy="817.66" r="10.6"/><rect class="cls-7" x="862.23" y="773.96" width="5.56" height="19.52" transform="translate(-302.22 790.12) rotate(-42.49)"/><circle class="cls-8" cx="853.94" cy="771.64" r="10.6"/><rect class="cls-7" x="855.24" y="835.46" width="5.56" height="19.52" transform="translate(388.22 1954.22) rotate(-111.61)"/><circle class="cls-8" cx="842.79" cy="851.25" r="10.6"/><rect class="cls-7" x="924.85" y="859.93" width="5.56" height="19.52" transform="translate(2066.16 1435.91) rotate(163.29)"/><circle class="cls-8" cx="932.34" cy="885.38" r="10.6"/><rect class="cls-7" x="915.01" y="758.85" width="5.56" height="19.52" transform="translate(240.89 -218.76) rotate(15.62)"/><circle class="cls-8" cx="906.15" cy="819.54" r="48"/><circle class="cls-8" cx="922.2" cy="752.83" r="10.6"/><path class="cls-9" d="M953.27,810.45a48,48,0,0,1-94.62,2.29,48,48,0,1,0,94.62-2.29Z"/></g><g id="virus_3" data-name="virus 3"><rect class="cls-7" x="215.81" y="225.66" width="5.56" height="19.52" transform="translate(217.07 -85.83) rotate(42.61)"/><circle class="cls-8" cx="229.68" cy="223.36" r="10.6"/><rect class="cls-7" x="126.64" y="265.32" width="5.56" height="19.52" transform="translate(-151.47 391.33) rotate(-87.29)"/><circle class="cls-8" cx="113.05" cy="274.3" r="10.6"/><rect class="cls-7" x="165.01" y="313.88" width="5.56" height="19.52" transform="translate(192.03 687.37) rotate(-156.41)"/><circle class="cls-8" cx="161.24" cy="338.65" r="10.6"/><rect class="cls-7" x="231.65" y="282.2" width="5.56" height="19.52" transform="translate(602.85 225.19) rotate(118.49)"/><circle class="cls-8" cx="248.83" cy="299.77" r="10.6"/><rect class="cls-7" x="153.45" y="217.4" width="5.56" height="19.52" transform="translate(-90.91 104.97) rotate(-29.17)"/><circle class="cls-8" cx="183.85" cy="271.5" r="48"/><circle class="cls-8" cx="148.24" cy="212.86" r="10.6"/><path class="cls-9" d="M210.89,231.85a48,48,0,0,1-65.54,68.3,48,48,0,1,0,65.54-68.3Z"/></g><g id="virus_2" data-name="virus 2"><rect class="cls-10" x="348.56" y="880.69" width="17.18" height="60.37" transform="translate(631.52 1850) rotate(-174.88)"/><rect class="cls-10" x="223.05" y="781.49" width="17.18" height="60.37" transform="translate(-468.8 1282.68) rotate(-107.99)"/><circle class="cls-8" cx="183.45" cy="827.32" r="32.8"/><rect class="cls-10" x="231.69" y="650.31" width="17.18" height="60.37" transform="translate(-457.79 497.46) rotate(-55.86)"/><circle class="cls-8" cx="198.34" cy="652.05" r="32.8"/><rect class="cls-10" x="484.78" y="628.89" width="17.18" height="60.37" transform="translate(753.41 -122.07) rotate(55.23)"/><circle class="cls-8" cx="535" cy="630.18" r="32.8"/><rect class="cls-10" x="509.16" y="796.97" width="17.18" height="60.37" transform="translate(1482.35 679.54) rotate(113.34)"/><circle class="cls-10" cx="347.41" cy="597.37" r="32.8"/><circle class="cls-8" cx="382.09" cy="746.5" r="148.47"/><circle class="cls-8" cx="564.27" cy="847.23" r="32.8"/><path class="cls-11" d="M465.71,623.87A148.43,148.43,0,0,1,263,835.13,148.45,148.45,0,1,0,465.71,623.87Z"/><circle class="cls-4" cx="283.99" cy="744.85" r="11.82"/><circle class="cls-4" cx="375.41" cy="744.85" r="11.82"/><path class="cls-5" d="M340.76,760.79s-2.95,8.72-14.26,8.72-13.91-8.72-13.91-8.72"/><path class="cls-5" d="M278.42,712.73s5,4.84,18.09,5.7"/><path class="cls-5" d="M381.33,712.73s-5,4.84-18.09,5.7"/><circle class="cls-8" cx="352.62" cy="956.14" r="32.8"/><circle class="cls-10" cx="437.25" cy="820.5" r="32.8"/></g></svg>