<svg id="Layer_3" data-name="Layer 3" xmlns="http://www.w3.org/2000/svg" viewBox="0 0 1080 1080"><defs><style>.cls-1,.cls-9{fill:#ff8d76;}.cls-2{fill:#e1ecff;}.cls-10,.cls-13,.cls-3{fill:#c7dcf9;}.cls-3{opacity:0.68;}.cls-4{fill:#fea691;}.cls-5,.cls-7{fill:#f774b9;}.cls-6{fill:#ff97c9;}.cls-7{opacity:0.82;}.cls-8{fill:none;stroke:#1c3177;stroke-linecap:round;stroke-miterlimit:10;stroke-width:8px;}.cls-10,.cls-9{opacity:0.56;}.cls-11{fill:#fff;}.cls-12{opacity:0.76;}</style></defs><path class="cls-1" d="M274.06,908.22s63.24-140.19,59.46-168-48.73-62.45-76-110.87S217.05,503.93,216.16,473.8c-1-34.25,20.23-44.5,50.38-24.94S302.72,525.3,324,531.31s30.43-92.59,34.62-119,14-165.09,49.18-167.68,48.87,22.77,48.67,44.29-24.45,149.64-15,152.19c18.29,5,35.15-114.21,47.15-150.09,8-23.84,28-36.44,51.58-28.24,19.06,6.63,20.77,28,13.54,64.11-6.14,30.61-25,139.64-17.1,141.41,18.78,4.23,45.85-127.07,60.26-138.64s52.59-7.4,50.19,29.72c-1.88,29.18-55.72,164.35-45.2,167.27,17,4.72,48.12-91.08,56.23-96.66,24.76-17.05,51.87,2.6,37,50.64C684,516.31,621.48,674.92,590.16,723s-42,70.85-47.67,91.65S525.4,986.44,525.4,986.44,365.22,1001.37,274.06,908.22Z"/><path class="cls-2" d="M399.91,398.15a74.19,74.19,0,0,1-45.44,20c-28.32,2-86.93-24.16-133-20S143.08,449,168.1,481.3s72.44.36,101.42-2.43,67.83,1.82,67.83,34.74-78.23,39.07-125.13,65.86C148.46,615.89,110.5,698,159.38,738.83s129.23-71.12,179.28-73.09,233.78,54.63,233.78,54.63,148.83-145,234.44-135.06,129.82,17.86,151.47-17.7-17.78-80.94-84.3-99.74-65.87-56.13-55.31-73.38C836.3,365.8,920.15,360.83,916.86,322s-48.73-81-117.22-59.27S698.22,410.89,657.4,414.18,399.91,398.15,399.91,398.15Z"/><path class="cls-3" d="M389.39,406.4a75,75,0,0,1-28.93,11c11.91,22.11,46.5,90.16,37.37,119.36-11,35.13-34.24,79.78-105.37,93.23S240.17,698.8,198,717.24c-25.46,11.14-46.68-1.1-60.38-18.35a60.05,60.05,0,0,0,21.74,39.94c48.89,40.83,129.23-71.12,179.28-73.09s233.78,54.63,233.78,54.63a885.31,885.31,0,0,1,77.42-65.56L657.73,642Z"/><path class="cls-2" d="M462,83.81s-.87,253.78-24.58,293.72c53.56,126,40.39,179.55,126.44,167.25s124.68-72,124.68-72S608.13,299.67,599.58,201,589.27,83.81,589.27,83.81Z"/><path class="cls-3" d="M492,83.81s2.24,134.74-13.83,209.66c22.21,63,32,68.16,32,68.16l.53-277.82Z"/><path class="cls-3" d="M561.59,83.81s-3.08,176.85,45.65,338.41C585,485.22,552.61,435,552.61,435L542.93,83.81Z"/><path class="cls-4" d="M621.83,985.78s-40.17-181.73-59.92-204.12-67.61-26.51-120.3-53.24S332,641.35,313.42,615.22c-21.07-29.7-8.34-51.28,29.85-51.75s77.05,46.29,99.44,39-27.66-99.83-39.51-125.65-84.95-154.23-55.32-177.28,56.64-8.67,69.15,10.48,66.56,146.76,76.39,143.47c19.1-6.39-36.22-121.72-46.76-160.54-7-25.77,3.3-48.73,29-55.37,20.76-5.36,34.9,12.57,49.76,48.72C538,317,585.62,424.57,593.61,421.5c19.1-7.32-34.34-139.41-28.41-158.13s42.15-37.54,61.9-3.3c15.54,26.93,47.59,178.2,58.61,174.58,17.78-5.82-11.12-108.91-7.24-118.62,11.85-29.68,47.41-28.27,62.56,23,11.25,38.06,49.39,215.21,50.05,276.23s4.61,87.41,11.85,109.14S866.4,875,866.4,875,775.93,985.78,621.83,985.78Z"/><rect class="cls-5" x="221.67" y="174.72" width="7.65" height="26.88" transform="translate(49.87 -47.23) rotate(13.43)"/><circle class="cls-6" cx="230.74" cy="166.21" r="14.6"/><rect class="cls-5" x="141.07" y="282.26" width="7.65" height="26.88" transform="translate(-55.25 557.19) rotate(-116.46)"/><circle class="cls-6" cx="124.7" cy="305.75" r="14.6"/><rect class="cls-5" x="141.15" y="206.65" width="7.65" height="26.88" transform="translate(-118.45 228.01) rotate(-58.35)"/><circle class="cls-6" cx="207.96" cy="254.85" r="66.1"/><circle class="cls-6" cx="125.77" cy="208.25" r="14.6"/><path class="cls-7" d="M213.85,189A66.08,66.08,0,0,1,180.9,315.15,66.09,66.09,0,1,0,213.85,189Z"/><line class="cls-8" x1="175.44" y1="269.5" x2="189.69" y2="271.8"/><line class="cls-8" x1="183.71" y1="263.53" x2="181.41" y2="277.78"/><line class="cls-8" x1="223.4" y1="234.86" x2="237.64" y2="237.16"/><line class="cls-8" x1="231.67" y1="228.89" x2="229.37" y2="243.13"/><path class="cls-8" d="M209.8,279.43s-.17-8.24,6.53-13.08,14.17-1.87,14.17-1.87"/><rect class="cls-5" x="993.4" y="616.6" width="7.65" height="26.88" transform="matrix(-0.09, 1, -1, -0.09, 1714.97, -306.05)"/><circle class="cls-6" cx="1019.69" cy="632.08" r="14.6"/><rect class="cls-5" x="875.42" y="552.23" width="7.65" height="26.88" transform="translate(-165.65 601.13) rotate(-34.7)"/><circle class="cls-6" cx="866.4" cy="547.12" r="14.6"/><rect class="cls-5" x="950.26" y="541.47" width="7.65" height="26.88" transform="translate(299.09 -333.45) rotate(23.42)"/><circle class="cls-6" cx="928.7" cy="622.23" r="66.1"/><circle class="cls-6" cx="963.05" cy="534.21" r="14.6"/><path class="cls-7" d="M994.69,618.63a66.09,66.09,0,0,1-129.54-14.55,66.09,66.09,0,1,0,129.54,14.55Z"/><line class="cls-8" x1="909.55" y1="592.14" x2="909.32" y2="606.57"/><line class="cls-8" x1="916.65" y1="599.47" x2="902.22" y2="599.24"/><line class="cls-8" x1="950.7" y1="634.65" x2="950.47" y2="649.07"/><line class="cls-8" x1="957.8" y1="641.98" x2="943.37" y2="641.74"/><path class="cls-8" d="M904.65,627.57s8.13-1.35,13.88,4.59,3.88,13.75,3.88,13.75"/><path class="cls-4" d="M388.05,875.81c-21.11-61.22-40.9-102.47-54.76-127.63-5.06,40-59.23,160-59.23,160,41.16,42.06,96.39,62.08,144.6,71.4C411.4,950,401.48,914.73,388.05,875.81Z"/><path class="cls-2" d="M720,249.49s1-57.6,26.5-78.71,54-3.07,58.19,18.5-6.15,34.26-28.13,37.92C762.16,229.59,735.15,225.88,720,249.49Z"/><path class="cls-9" d="M780.22,845c-9.8,45.63-32.14,114.54-32.14,114.54C824.1,926.78,866.4,875,866.4,875s-56.22-128.86-63.47-150.6-11.19-48.12-11.85-109.14C767.05,688.32,798.66,759.15,780.22,845Z"/><circle class="cls-2" cx="167.15" cy="833.25" r="45.85"/><path class="cls-10" d="M136,799.6a45.85,45.85,0,0,0,62,67.55C151.1,871.06,122.16,842.11,136,799.6Z"/><ellipse class="cls-11" cx="185.22" cy="814.28" rx="9.96" ry="14.55" transform="translate(-556.45 430.51) rotate(-49.83)"/><g class="cls-12"><circle class="cls-2" cx="948.45" cy="724.03" r="45.85"/><path class="cls-10" d="M917.31,690.38a45.85,45.85,0,0,0,62,67.55C932.39,761.84,903.46,732.89,917.31,690.38Z"/><ellipse class="cls-11" cx="966.52" cy="705.06" rx="9.96" ry="14.55" transform="translate(-195.72 988.73) rotate(-49.83)"/></g><path class="cls-13" d="M721.17,247.72c15.38-21.64,41.36-18.19,55.35-20.52,22-3.66,32.33-16.35,28.13-37.92a34.23,34.23,0,0,0-8.81-16.69c2.23,17.39-5.08,32.31-23.52,37C754.8,214,729.68,223,721.17,247.72Z"/><path class="cls-11" d="M835.87,339.25c-4.31-7.08,25.75-38.52,43.13-31.91s4.39,18.92-7.38,25.75S839,344.31,835.87,339.25Z"/><ellipse class="cls-11" cx="212.69" cy="431.89" rx="24.88" ry="12.29" transform="translate(-102.62 68.09) rotate(-14.7)"/></svg>