<svg xmlns="http://www.w3.org/2000/svg" viewBox="0 0 1080 1080"><defs><style>.cls-1{isolation:isolate;}.cls-2,.cls-3,.cls-7,.cls-8{fill:#c7dcf9;}.cls-3{opacity:0.51;}.cls-10,.cls-3,.cls-5{mix-blend-mode:multiply;}.cls-4,.cls-5,.cls-6{fill:#ff8d76;}.cls-10,.cls-5{opacity:0.5;}.cls-6,.cls-7,.cls-8{stroke:#fff;}.cls-13,.cls-6{stroke-miterlimit:10;}.cls-6{stroke-width:19px;}.cls-10,.cls-7,.cls-8{stroke-linejoin:round;stroke-width:13px;}.cls-10,.cls-13,.cls-8{stroke-linecap:round;}.cls-9{fill:#1c3177;}.cls-10,.cls-13{fill:none;}.cls-10{stroke:#ff8d76;}.cls-11{fill:#fff;}.cls-12{fill:#738de0;}.cls-13{stroke:#738de0;stroke-width:7px;}.cls-14{fill:#ff97c9;}.cls-15{fill:#f774b9;opacity:0.87;}</style></defs><g class="cls-1"><g id="Layer_2" data-name="Layer 2"><path class="cls-2" d="M762.37,881a12.33,12.33,0,0,0,12.15-14.46C752.86,744.22,656.11,652,540,652S327.14,744.22,305.48,866.54A12.33,12.33,0,0,0,317.63,881Z"/><ellipse class="cls-3" cx="540" cy="645.25" rx="130.08" ry="114.64"/><circle class="cls-4" cx="342.11" cy="280.12" r="89.85"/><circle class="cls-5" cx="348.87" cy="289.19" r="54.7"/><circle class="cls-4" cx="737.89" cy="280.12" r="89.85"/><circle class="cls-5" cx="731.13" cy="289.19" r="54.7"/><polygon class="cls-6" points="461.59 676.55 618.41 676.55 540 782.97 461.59 676.55"/><path class="cls-4" d="M810.26,501c0,130-121,212.92-270.26,212.92S269.74,630.9,269.74,501,352.9,246.1,540,246.1,810.26,371,810.26,501Z"/><path class="cls-7" d="M720.1,485.06s-64.92,19-180.1,19-180.1-19-180.1-19,2.12,63.19-15.5,114.16C424,678.86,496.7,679.87,540,679.87s116-1,195.6-80.65C718,548.25,720.1,485.06,720.1,485.06Z"/><line class="cls-8" x1="359.9" y1="485.06" x2="274.16" y2="437.37"/><line class="cls-8" x1="344.4" y1="599.22" x2="299.06" y2="608.85"/><line class="cls-8" x1="720.1" y1="485.06" x2="805.84" y2="437.37"/><line class="cls-8" x1="735.6" y1="599.22" x2="780.94" y2="608.85"/><path class="cls-8" d="M670.08,545.05S618.38,562.34,540,562.34s-130.08-17.29-130.08-17.29"/><path class="cls-8" d="M680.87,587.26S627.93,618.72,540,618.72s-140.87-31.46-140.87-31.46"/><circle class="cls-9" cx="450.08" cy="450.29" r="20.98"/><circle class="cls-9" cx="629.92" cy="450.29" r="20.98"/><path class="cls-5" d="M410.49,395.83c1-7.81,42.1-25.78,52.78-20.54s9.74,16.85-1.14,21.28S408.48,411.75,410.49,395.83Z"/><path class="cls-5" d="M669.51,395.83c-1-7.81-42.1-25.78-52.78-20.54s-9.74,16.85,1.14,21.28S671.52,411.75,669.51,395.83Z"/><path class="cls-10" d="M488.66,280.12s5.25,39.16,22.59,47.1,24.66-13.12,24.66-13.12S552.19,357.34,579,355s12.33-50.41,2.9-68.78"/><rect class="cls-11" x="608.95" y="812.9" width="77.95" height="22.55"/><circle class="cls-12" cx="183.43" cy="545.48" r="10.64"/><line class="cls-13" x1="183.43" y1="543.64" x2="175.3" y2="519.37"/><circle class="cls-14" cx="165.21" cy="491.58" r="38.2"/><path class="cls-15" d="M173.11,514a30.29,30.29,0,0,1-3.71-60.35,38.79,38.79,0,0,0-4.19-.24,38.2,38.2,0,1,0,38.19,38.2,38.84,38.84,0,0,0-.23-4.2A30.3,30.3,0,0,1,173.11,514Z"/><circle class="cls-12" cx="206.14" cy="450.72" r="10.64"/><circle class="cls-12" cx="118.28" cy="484.54" r="13.99"/><line class="cls-13" x1="124.21" y1="484.54" x2="148.52" y2="489.16"/><line class="cls-13" x1="206.14" y1="450.72" x2="188.69" y2="468.09"/><circle class="cls-12" cx="924.07" cy="719.9" r="10.64"/><line class="cls-13" x1="922.53" y1="718.89" x2="897.8" y2="712.3"/><circle class="cls-14" cx="869.04" cy="705.43" r="38.2"/><path class="cls-15" d="M892.08,711.16A30.29,30.29,0,0,1,839.66,681a40.27,40.27,0,0,0-2.5,3.37,38.19,38.19,0,1,0,52.91-10.85,36.79,36.79,0,0,0-3.63-2.11A30.29,30.29,0,0,1,892.08,711.16Z"/><circle class="cls-12" cx="857.48" cy="648.76" r="10.64"/><circle class="cls-12" cx="837.33" cy="740.72" r="13.99"/><line class="cls-13" x1="840.59" y1="735.77" x2="857.84" y2="718.02"/><line class="cls-13" x1="857.48" y1="648.76" x2="862.37" y2="672.89"/></g></g></svg>